<?xml version="1.0" encoding="utf-8"?>
<!-- Generator: Adobe Illustrator 26.3.1, SVG Export Plug-In . SVG Version: 6.00 Build 0)  -->
<svg version="1.1" id="レイヤー_1" xmlns="http://www.w3.org/2000/svg" xmlns:xlink="http://www.w3.org/1999/xlink" x="0px"
	 y="0px" viewBox="0 0 17.2 17.2" style="enable-background:new 0 0 17.2 17.2;" xml:space="preserve">
<style type="text/css">
	.st0{fill-rule:evenodd;clip-rule:evenodd;fill:#FFFFFF;}
</style>
<path id="icon_twitter.svg" class="st0" d="M8.6,0C3.8,0,0,3.8,0,8.6c0,4.7,3.9,8.6,8.6,8.6c4.7,0,8.6-3.9,8.6-8.6
	C17.2,3.8,13.4,0,8.6,0C8.6,0,8.6,0,8.6,0z M13.2,6.7c0,0.1,0,0.2,0,0.3c0,3.4-2.7,6.1-6,6.1c0,0-0.1,0-0.1,0c-1.2,0-2.3-0.3-3.3-1
	c0.2,0,0.3,0,0.5,0c1,0,1.9-0.3,2.7-0.9c-0.9,0-1.7-0.6-2-1.5c0.1,0,0.3,0,0.4,0c0.2,0,0.4,0,0.6-0.1C5,9.5,4.3,8.7,4.3,7.6v0
	c0.3,0.2,0.6,0.3,1,0.3c-0.6-0.4-1-1.1-1-1.8c0-0.4,0.1-0.8,0.3-1.1C5.7,6.4,7.3,7.2,9,7.3c0-0.2-0.1-0.3-0.1-0.5
	c0-1.2,1-2.1,2.1-2.1c0.6,0,1.2,0.2,1.6,0.7C13.1,5.2,13.6,5,14,4.8c-0.2,0.5-0.5,0.9-0.9,1.2c0.4,0,0.8-0.2,1.2-0.3
	C14,6.1,13.7,6.4,13.2,6.7z"/>
</svg>
