<?xml version="1.0" encoding="utf-8"?>
<!-- Generator: Adobe Illustrator 26.3.1, SVG Export Plug-In . SVG Version: 6.00 Build 0)  -->
<svg version="1.1" id="レイヤー_1" xmlns="http://www.w3.org/2000/svg" xmlns:xlink="http://www.w3.org/1999/xlink" x="0px"
	 y="0px" viewBox="0 0 19.2 19.2" style="enable-background:new 0 0 19.2 19.2;" xml:space="preserve">
<style type="text/css">
	.st0{fill:#FFFFFF;}
</style>
<g transform="translate(6.4 6.519)">
	<g transform="translate(-8 -8.118)">
		<path class="st0" d="M11.2,3.3c2.6,0,2.9,0,3.9,0.1c0.6,0,1.2,0.1,1.8,0.3c0.8,0.3,1.5,1,1.8,1.8C18.9,6.1,19,6.7,19,7.3
			c0,1,0.1,1.3,0.1,3.9s0,2.9-0.1,3.9c0,0.6-0.1,1.2-0.3,1.8c-0.3,0.8-1,1.5-1.8,1.8c-0.6,0.2-1.2,0.3-1.8,0.3c-1,0-1.3,0.1-3.9,0.1
			s-2.9,0-3.9-0.1c-0.6,0-1.2-0.1-1.8-0.3c-0.8-0.3-1.5-1-1.8-1.8c-0.2-0.6-0.3-1.2-0.3-1.8c0-1-0.1-1.3-0.1-3.9s0-2.9,0.1-3.9
			c0-0.6,0.1-1.2,0.3-1.8C4,4.7,4.7,4,5.5,3.7c0.6-0.2,1.2-0.3,1.8-0.3C8.3,3.3,8.6,3.3,11.2,3.3 M11.2,1.6c-2.6,0-2.9,0-4,0.1
			c-0.8,0-1.6,0.2-2.3,0.4C3.6,2.6,2.6,3.6,2.1,4.9C1.8,5.7,1.7,6.4,1.7,7.2c-0.1,1-0.1,1.4-0.1,4s0,2.9,0.1,4
			c0,0.8,0.2,1.6,0.4,2.3c0.5,1.3,1.5,2.3,2.8,2.8c0.7,0.3,1.5,0.4,2.3,0.4c1,0.1,1.4,0.1,4,0.1s2.9,0,4-0.1c0.8,0,1.6-0.2,2.3-0.4
			c1.3-0.5,2.3-1.5,2.8-2.8c0.3-0.7,0.4-1.5,0.4-2.3c0.1-1.1,0.1-1.4,0.1-4s0-2.9-0.1-4c0-0.8-0.2-1.6-0.4-2.3
			c-0.5-1.3-1.5-2.3-2.8-2.8c-0.7-0.3-1.5-0.4-2.3-0.4C14.1,1.6,13.8,1.6,11.2,1.6z M11.2,6.3c-2.7,0-4.9,2.2-4.9,4.9
			s2.2,4.9,4.9,4.9c2.7,0,4.9-2.2,4.9-4.9c0,0,0,0,0,0C16.1,8.5,13.9,6.3,11.2,6.3z M11.2,14.4C9.4,14.4,8,13,8,11.2
			C8,9.4,9.4,8,11.2,8c1.8,0,3.2,1.4,3.2,3.2S13,14.4,11.2,14.4C11.2,14.4,11.2,14.4,11.2,14.4z M16.3,4.9c-0.6,0-1.2,0.5-1.2,1.2
			c0,0.6,0.5,1.2,1.2,1.2c0.6,0,1.2-0.5,1.2-1.2C17.5,5.4,17,4.9,16.3,4.9C16.3,4.9,16.3,4.9,16.3,4.9L16.3,4.9z"/>
	</g>
</g>
</svg>
