<svg id="logo.svg" xmlns="http://www.w3.org/2000/svg" width="451.34" height="391.938" viewBox="0 0 451.34 391.938">
  <defs>
    <style>
      .cls-1 {
        fill: #fff;
      }

      .cls-1, .cls-2 {
        fill-rule: evenodd;
      }

      .cls-2 {
        fill: #fcc800;
      }
    </style>
  </defs>
  <path id="logo" class="cls-1" d="M761.066,546.536c2.134,0,3.64,1.445,5.383,3.119,1.684,1.617,3.594,3.451,6.372,4.014,2.325,0.471,3.829,1.4,4.47,2.756a5.44,5.44,0,0,1-.238,4.288c-1.4.78-2.394,2.507-3.019,5.27l-0.183.81,0.821-.133c10.081-1.624,16.368-4.447,18.815-5.715a13.821,13.821,0,0,0-.275,3.94,25.558,25.558,0,0,0,.87,4.312,20.918,20.918,0,0,1,.75,3.705c0.226,2.879-1.116,4.865-3.992,5.906-0.42-.088-1.65-0.335-3.466-0.619l-1.494-.233,0.98,1.15a8.041,8.041,0,0,0,2.987,2.2,9.448,9.448,0,0,0,3.628.579,24.962,24.962,0,0,0,4.192-.4c2.345,1.577,5.464,4.263,5.392,5.576a4.35,4.35,0,0,1-1.868,3.449,13.136,13.136,0,0,0-3.3,4.333l-0.309.638,0.693,0.153a109.409,109.409,0,0,0,16.915,2.384l0.594,0.035v-0.595c0-6.413.245-12.951,0.721-19.433l0.072-.978-0.881.434c-1.574.776-3.049,1.6-4.476,2.395l-1.181.657a7.728,7.728,0,0,1-3.76,1.133,12.3,12.3,0,0,1-4.6-1.273c-2.654-1.092-5.126-3.167-4.1-5.713,0.673-1.676.239-3.6-.143-5.3-0.364-1.615-.678-3.009,0-3.706a8.389,8.389,0,0,0,2-5.188,36.829,36.829,0,0,0,11.827,1.789,45.282,45.282,0,0,0,7.7-.669,33.14,33.14,0,0,0,12.39-4.407c1.868-1.078,3.217-1.856,5.471-1.935,0.083,0,.164,0,0.245,0,2.2,0,3.842,1.037,5.914,2.349a23.007,23.007,0,0,0,10.925,4.111,3.069,3.069,0,0,1,2.425,1.429c1.575,2.44.785,7.3-.479,11.043-0.769,2.276-2.373,3.336-5.046,3.336a14.109,14.109,0,0,1-2.255-.2,41.4,41.4,0,0,1-4.877-1.241c-1.592-.471-3.4-1.006-5.357-1.428l-0.532-.115-0.131.527a81.979,81.979,0,0,0-2.39,21.391l0.013,0.643,0.635-.1c6.4-1,9.015-2.312,10.92-3.272a8.191,8.191,0,0,1,4.318-1.2q0.231,0,.48.009c3.9,0.145,4.992,1.839,6.15,3.633,0.989,1.533,2.013,3.118,4.638,3.759,5.525,1.348,6.36,2.188,6.36,4.38,0,7.129-3.485,9.171-6.408,9.63a7.658,7.658,0,0,1-1.185.079,55.05,55.05,0,0,1-6.521-.687,161.074,161.074,0,0,0-16.941-1.621l-0.73-.027,0.16,0.711c5.716,25.358,22.491,34.6,27.285,36.756a13.281,13.281,0,0,0-7.531,9.865c-0.343,2.069-2.315,6.881-13.172,6.881-5.763,0-9.978-2-14.092-6.685-7.357-8.379-11.841-23.808-13.328-45.858l-0.04-.6-0.6.082c-5.925.81-11.062,1.946-13.741,3.04a4.127,4.127,0,0,1-1.563.288A7.007,7.007,0,0,1,795.3,613.7a4.089,4.089,0,0,1-1.029-3.349,4.7,4.7,0,0,0,.049-1.324l-0.2-2.192-0.878,2.019a29.29,29.29,0,0,1-2.814,5.132,36.544,36.544,0,0,1-4.841,5.415l-1.787,1.673,2.338-.728c4.3-1.336,6.013-2.665,6.516-3.13a13.71,13.71,0,0,1,1.572-.1,8.571,8.571,0,0,1,5.758,2.133,7.613,7.613,0,0,0,3.69,1.776,1.831,1.831,0,0,1,1.119,1.273c1.04,2.613.733,7.887-.263,9.091a15.277,15.277,0,0,0-1.775,3.119c-1.146,2.41-2.332,4.9-4.9,4.9-2.481,0-5.194-.725-8.629-1.644a86.217,86.217,0,0,0-16.513-3.1l-0.569-.045-0.036.569c-0.9,14.217-2.521,21.95-5.412,25.86a15.792,15.792,0,0,1-12.621,5.907c-8.689,0-13.954-4.155-15.17-8.014a19.061,19.061,0,0,0-4.639-7.878c3.358-.248,11.939-1.9,15.954-12.146,0.306-.78.6-1.546,0.877-2.3l0.34-.921-0.967.174a88.184,88.184,0,0,0-17.267,5.064,42.211,42.211,0,0,1-4.738,1.647,9.031,9.031,0,0,1-2.112.267c-2.652,0-4.6-1.425-5.085-3.719a24.393,24.393,0,0,0-3.03-6.468,9.513,9.513,0,0,1,2.857-6.4c1.916-1.664,1.921-4.265,1.761-5.639,3,0.79,13.686,3.231,31.066,3.231H754.8l0.089-.451c0.318-1.612.593-3.283,0.817-4.965l0.107-.8-0.787.177c-0.923.208-1.8,0.413-2.617,0.613l-0.276.067-0.109.261c-0.4.962-1.715,1.584-3.344,1.584a6.762,6.762,0,0,1-2.272-.4c-0.421-.153-0.851-0.3-1.281-0.453-3.623-1.265-7.045-2.459-7.318-5.527-0.479-5.384-1.882-8.347-6.007-12.682-2.145-2.256-2.844-5.338-2.076-9.162a12.308,12.308,0,0,0-.452-6.372,32.424,32.424,0,0,0,8.376,1.092,29.423,29.423,0,0,0,6.667-.747c0.046-.012,4.654-1.259,10.936-2.437l0.52-.1-0.066-.524c-0.141-1.118-.3-2.251-0.483-3.367l-0.091-.572-0.569.109a59.222,59.222,0,0,0-12.186,3.48,12.291,12.291,0,0,1-4.774,1.139,5.117,5.117,0,0,1-5.082-3.287,23.11,23.11,0,0,0-4.744-6.885,4.253,4.253,0,0,1-1.121-3.229,3.871,3.871,0,0,1,1.358-2.789,6.835,6.835,0,0,0,2.525-4.682,96.56,96.56,0,0,0,20.954,4.412l0.865,0.086-0.277-.823c-3.206-9.515-7.221-14.452-9.213-16.467,0.464,0.02,1.008.034,1.607,0.034a26.377,26.377,0,0,0,5.642-.536,24.742,24.742,0,0,0,5.568-1.9,10.661,10.661,0,0,1,5.382-1.229m11.927,34.915,0.6-.034c1.574-.091,3.145-0.155,4.67-0.19l0.854-.019-0.356-.776a25.579,25.579,0,0,0-1.637-3.019l-0.158-.249-0.3-.011c-1.048-.039-2.023-0.058-2.981-0.058h-0.641l-0.01.549q-0.03,1.543-.04,3.208l0,0.6m0.024,12.854,0.607-.05c2.965-.247,5.3-0.378,6.729-0.443l0.522-.024,0.014-.522c0.026-1,.026-2.024,0-3.033l-0.015-.554-0.555.008c-1.434.021-3.775,0.092-6.789,0.315l-0.522.039,0,0.523,0.008,3.132V594.3m-24.468,4,0.551-.137c2.284-.568,4.727-1.114,7.067-1.579l0.461-.092-0.009-.469c-0.019-1.006-.047-2-0.087-2.963l-0.027-.668-0.654.143c-3.248.712-5.963,1.421-7.67,1.891l-0.523.144,0.127,0.528q0.324,1.346.633,2.649l0.131,0.553m24.421,8.245,0.6-.034c1.662-.1,3.308-0.162,4.892-0.195l0.41-.009,0.117-.393c0.278-.939.536-1.957,0.786-3.11l0.151-.691-0.708.01c-1.869.029-3.784,0.1-5.69,0.2l-0.528.029,0,0.528c-0.006,1.043-.013,2.059-0.022,3.065l0,0.6M751.059,609.6l0.554-.116c1.431-.3,2.936-0.6,4.471-0.876l0.444-.081,0.017-.45q0.053-1.393.082-2.859l0.015-.711-0.7.152c-1.724.375-3.445,0.785-5.116,1.218l-0.521.134,0.113,0.526c0.188,0.874.361,1.706,0.524,2.509l0.113,0.554m21.606,13.321,0.645-.075a84.806,84.806,0,0,0,9.431-1.585l0.866-.2-0.555-.694a31.5,31.5,0,0,0-4.6-4.572c-0.323-.265-0.6-0.512-0.854-0.755l-0.174-.169-0.241.012c-1.235.054-2.521,0.132-3.822,0.231l-0.51.038-0.009.511q-0.068,3.476-.16,6.611l-0.019.649m109.281-144.73a40.254,40.254,0,0,0-10.7,10.949c-3.108,4.571-4.168,11.821-8.911,10.933A225.1,225.1,0,0,1,833.3,481.19a182.712,182.712,0,0,1-22.533-21.817c-13.655,13.007-13.4,21.321-25.58,27.848a28.592,28.592,0,0,1-4.809,2.054,12.772,12.772,0,0,1-6.522,6.43,18.938,18.938,0,0,0-4.258-.395c-1.807,9.845-2.3,13.581-2.3,13.581a12.3,12.3,0,0,0,4.236-3.838s-1.877,9.416,2.98,17.176c1.495,2.389.723,5.734-2.649,5.9-9.538.465-14.685,2.576-22.727,8.456-7.211,5.274-16.245,2.715-18.657-5.277a21.129,21.129,0,0,0-6.6-9.834,32.15,32.15,0,0,0,7.419-.263c6.074-.991,10.616-5.14,14.105-11.213a54.329,54.329,0,0,0,5.108-11.927c-2.513.631-5.249,1.4-8.23,2.327-3.09.966-5.338,0.506-7.284-1.724-1.325-1.518-1.84-4.346-1.693-7.8,0.156-3.656-2.87-6.968-2.87-6.968a67.476,67.476,0,0,0,12.362-.069,78.613,78.613,0,0,0,9.828-1.471,63.851,63.851,0,0,0-.395-6.635,68.421,68.421,0,0,0-2.248-11.052c-15.617,4.155-19.194.063-20.209-2.571-0.956-2.483-.147-4.277-0.515-7.45a16.049,16.049,0,0,0-3.5-7.554s11.59,3.484,23.437,1.69c7.08-1.072,10.816-1.931,16.191-4.54,7.645-3.71,10.6,2.333,21.63,2.333,3.164,0,4.451.969,4.12,4.07-0.588,5.519-6.622,8.071-6.622,8.071s-7.517-.257-20.46,2.409a76.153,76.153,0,0,0,7.914.971c4.67,0.324,5.222,2.718,3.312,5.9-0.961,1.6-1.569,4.068-2.162,7.337,2.48-2.154,5.177-4.639,7.937-7.44,10.744-10.9,14.57-17.384,14.57-17.384s-3.526-.5-3.018-5.548a14.228,14.228,0,0,0-2.54-9.62,23.822,23.822,0,0,0,9.245.762c3.354-.478,6.173-2.148,9.08-2.148,6.044,0,7,4.579,15.562,6.418,6.628,1.424,4.194,7.79,4.194,7.79a51.346,51.346,0,0,0-5.085,2.263,143.839,143.839,0,0,0,24.848,15.95C867.652,476.216,881.946,478.192,881.946,478.192Zm-53.362,26.136c-1.834.9-3.83,1.989-6.087,3.373-12.045,7.383-18.118,15.942-27.458,18.73-5.722,1.708-10.723-.176-13.544-3.8a54.576,54.576,0,0,0-7.8-7.809,132.914,132.914,0,0,0,13.018-3.5,84.561,84.561,0,0,0,25.471-14.611,12.234,12.234,0,0,0,4.5-8.138c-10.283,4.484-16.969,11.578-23.426,17.074-4.971,4.231-10.391,4.294-14.319-.3a31.359,31.359,0,0,0-8.569-7.055,90.221,90.221,0,0,0,29.184-16.254c7.074-5.991,3.7-11.826,3.7-11.826s4.218-2.707,8.207-.164a21.861,21.861,0,0,0,8.7,3.518c3.112,0.449,6.8,3.056,4.815,5.982-1.707,2.519-.379,4.737-1.515,6.138a18.49,18.49,0,0,0,11.08,1.6c6.134-.815,10.439,4,7.828,7.171-2.261,2.749-1.017,5.387-4.553,6.5a14.99,14.99,0,0,0,11.741,5.466c9.814,0.224,13.327,6.883,8.459,11.973-4.788,5.006-3.911,9.943-9.1,9.868a66.735,66.735,0,0,0-27.366,5.011c-11.728,4.748-20.455,13.583-33.637,13.583-5.73,0-8.653-2.2-11.28-5.241a43.869,43.869,0,0,0-6.689-6.087,111,111,0,0,0,15.628-3.752c11.251-3.516,26.863-8.944,36.376-15.856C829.086,510.743,829.059,506.268,828.584,504.328Zm-6.045-199.044c3.094,0,4.115,1.229,5.407,2.785a11.568,11.568,0,0,0,2.56,2.475,12.2,12.2,0,0,0,4.007,1.542,49.032,49.032,0,0,0-13.376,11.624l-0.651.854,1.065,0.062c2.536,0.148,4.87.3,7.014,0.44,4.875,0.318,8.726.569,11.811,0.569q0.344,0,.675,0a52.209,52.209,0,0,0,11.8-1.374c-1.208,1.855-3.07,5.29-2.546,8.18,0.752,4.15-1.359,5.229-1.443,5.269l-0.546.251,0.281,0.535a1.6,1.6,0,0,1-.053,1.6c-0.642,1.078-2.456,1.7-4.976,1.7a24.574,24.574,0,0,1-4.3-.437c-3.086-.56-6.525-1.064-10.223-1.5l-2.913-.343,2.58,1.41a27.014,27.014,0,0,0,9.808,3.107c5.062,0.6,5.293.793,6.179,5.091,1.074,5.215-.3,6.323-2.033,7.726a8.963,8.963,0,0,0-3.494,4.865c-0.19.64-.382,1.313-0.578,2-1.159,4.078-2.6,9.153-5.029,10.761a26.99,26.99,0,0,1-6.936,3.509,3.978,3.978,0,0,1-1.33.249,5.666,5.666,0,0,1-2.791-1.026,10.168,10.168,0,0,0-4.5-1.6c-5.047-.521-10.713-0.868-16.385-1l-0.52-.012-0.054.523c-0.085.825-.172,1.624-0.261,2.417l-0.07.618,0.615,0.016a230.068,230.068,0,0,1,26.239,2.224,9.175,9.175,0,0,0,1.638.164,4.333,4.333,0,0,0,4.1-2.572c0.62-1.007,1.109-1.8,2.585-1.8a5.043,5.043,0,0,1,.555.033,11.783,11.783,0,0,1,5.7,2.241,15.648,15.648,0,0,0,6.512,2.691c2.58,0.438,4.374,1.468,5.331,3.062a7.075,7.075,0,0,1,.583,5.075,9.011,9.011,0,0,0-5.716,10.292c1.3,8.5,12.48,13.74,16.74,15.443a18.881,18.881,0,0,0-8.307,6.165c-0.783,1-1.46,2.076-2.115,3.114-1.712,2.712-3.193,5.059-5.84,5.121-1.158-.493-12.157-5.431-16.514-16.44a40.682,40.682,0,0,1-2.359-17.5l0.031-.5-0.485-.1c-2.569-.511-5.238-0.975-7.933-1.38l-2.146-.323,1.719,1.337a18.507,18.507,0,0,1,5.657,7.64c-0.552,1.289-2.931,7.683,2.134,11.708,2.312,1.836,2.983,2.951,2.983,6.8,0,1.551-.629,1.837-2.62,2.507a19.473,19.473,0,0,0-4.768,2.194,10.119,10.119,0,0,1-5.6,1.662,14.149,14.149,0,0,1-4.787-.914,17.739,17.739,0,0,1-6.535-4.672c0.034-.2.085-0.533,0.147-0.99a8.63,8.63,0,0,0-2.391-6.649c-3.3-3.641-9.446-5.813-16.452-5.813a35.354,35.354,0,0,0-10.984,1.771c-6.113,2-7.224,5.883-6.95,7.967a7.964,7.964,0,0,1-4.555,1.263,14.444,14.444,0,0,1-5.532-1.233,9.1,9.1,0,0,1-3.944-3.289l-0.589-.845-0.393.954a42.837,42.837,0,0,1-5.663,9.763c-1.837,2.392-4.416,5.137-8.09,5.137-5.27,0-11.943-4.325-12.75-8.264a10.139,10.139,0,0,0-3.612-5.493,13.651,13.651,0,0,0,7.717-2.321,15.059,15.059,0,0,0,6.02-14.538c-0.7-4.544-4.206-4.9-5.263-4.9H734.73c-2.266-2.528-1.022-4.625,1.171-7.792a15.926,15.926,0,0,0,2.674-5.035,7.187,7.187,0,0,0-.628-4.73,9.646,9.646,0,0,0,3.162.632c5.6,0.178,9.565,1.58,12.468,4.411l0.186,0.182,0.258-.024c3.541-.336,7-0.745,10.283-1.217,5.67-.814,11.514-1.424,17.37-1.814l0.44-.03,0.078-.438q0.213-1.2.4-2.416l0.109-.7-0.705.049c-3.39.238-6.753,0.551-10,.929-1.465.171-2.935,0.358-4.369,0.557l-0.216.03-0.14.17a4.169,4.169,0,0,1-.513.523c-0.948.8-6.121,1.09-7.82,1.184l-0.2.011c-0.184.011-.362,0.015-0.535,0.015a5.605,5.605,0,0,1-4.935-2.584,9.382,9.382,0,0,0-5.391-3.125c1-1.5,2.674-5.09,1.084-10.929-2.128-7.817-5.493-11.248-6.582-12.193,0.531-1.254,2.767-5.334,9.381-5.352a89.127,89.127,0,0,0,11.159-.695c0.026,0,2.613-.338,7.028-0.713l0.578-.049-0.064-.581c-0.093-.83-0.215-1.669-0.375-2.565L770,339.153l-0.515.049c-4.357.41-8.193,0.858-10.994,1.185l-1.1.129c-8.464.983-13.329,3.207-14.119,3.591-0.042,0-.1,0-0.165,0a4.385,4.385,0,0,1-4.533-3.512,12.164,12.164,0,0,1-.2-3.691,21.159,21.159,0,0,0-.16-4.667A13.841,13.841,0,0,0,735.492,326a47.187,47.187,0,0,0,9.106.9c0.937,0,1.869-.031,2.772-0.092,4.121-.277,8.009-0.646,12.126-1.037l2.561-.242,1.2-.112-0.856-.859a12.288,12.288,0,0,0-4.281-2.6c-2.227-.934-3.7-1.552-3.7-4.647,0-4.3,1.432-4.965,5.26-6.74l0.879-.409c3.72-1.747,5.169-3.8,5.67-4.746,1.084,0.41,4.072,1.8,7.823,5.712a26.838,26.838,0,0,1,7.024,12.579l0.111,0.45,0.46-.019c4.681-.194,9.358-0.289,14.3-0.289,2.022,0,3.949.019,5.833,0.046l0.468,0.006,0.093-.462c0.346-1.72.79-3.486,1.439-5.726,1.4-4.843,3.768-9.162,6.025-11a2.625,2.625,0,0,1,1.765-.776,6.534,6.534,0,0,1,1.143.152,12.633,12.633,0,0,0,2.526.273q0.183,0,.378-0.006a13,13,0,0,0,3.527-.571,10.844,10.844,0,0,1,3.392-.5m-41.148,36.84,0.7-.03c4.611-.2,9.274-0.3,13.86-0.3,1.94,0,3.768.013,5.532,0.032l0.69,0.008-0.129-.684c-0.157-.829-0.291-1.69-0.4-2.56l-0.06-.489-0.488-.009c-2.737-.055-5.519-0.082-8.269-0.082-3.3,0-6.8.088-10.415,0.262l-0.482.023-0.052.485c-0.1.9-.221,1.8-0.367,2.651l-0.119.7m39.538,0.358-0.033-.637a5.721,5.721,0,0,1,.077-1.345,6.524,6.524,0,0,1,.18-0.736l0.2-.677-0.7-.056c-1.947-.157-4-0.3-6.105-0.423l-0.451-.027-0.124.439c-0.238.844-.448,1.654-0.623,2.408l-0.156.672,0.683,0.027c2.239,0.089,4.4.2,6.418,0.317l0.629,0.038m-0.27,12.874,0.118-.475c0.173-.694.343-1.395,0.507-2.112l0.144-.631-0.638-.064c-3.85-.389-10.126-0.891-18.161-1.08l-0.592-.015,0.015,0.6c0.017,0.653.031,1.354,0.039,2.126l0.007,0.549,0.543,0.014c7.532,0.191,13.693.673,17.536,1.043l0.482,0.047m-54.562.79,0.5-.061c3.878-.479,9.991-1.135,17.091-1.539l0.527-.03,0.006-.534c0.007-.769.009-1.492,0.006-2.153l0-.6-0.592.032c-7.549.413-13.794,1.1-17.7,1.611l-0.637.083,0.163,0.628c0.175,0.666.35,1.36,0.525,2.073l0.121,0.489m51.451,10.286,0.126-.441c0.18-.635.372-1.3,0.571-1.979l0.2-.682-0.7-.047c-4.789-.325-9.914-0.539-15.234-0.636l-0.55-.011-0.024.556q-0.042.99-.1,2.026l-0.031.59,0.585,0.01c5.2,0.089,10.15.285,14.705,0.584l0.453,0.03m-49.225.736,0.533-.054q1.359-.136,2.952-0.28c3.664-.326,7.492-0.584,11.376-0.767l0.5-.023,0.038-.5c0.054-.692.1-1.372,0.145-2.04l0.041-.636-0.631.03c-5.022.24-10.022,0.61-14.859,1.1l-0.609.062,0.11,0.607c0.121,0.666.228,1.322,0.325,1.968l0.081,0.535m29.3,30.686,0.787-.107c2.677-.363,5.125-0.758,7.277-1.174l0.694-.135-0.284-.654a32.9,32.9,0,0,0-1.953-3.806l-0.156-.26-0.3-.013c-1.44-.065-2.917-0.113-4.392-0.142l-0.483-.009-0.084.48c-0.313,1.791-.631,3.485-0.945,5.034l-0.16.786m-27.285,1.763c1.812,0,3.734-.031,5.713-0.092l0.384-.011,0.129-.365c0.454-1.274,1.161-3.34,1.954-5.945l0.25-.821-0.847.087a173.2,173.2,0,0,0-18.321,2.88l-0.492.1,0.047,0.506,0.044,0.445c0.039,0.4.079,0.8,0.105,1.22,0.013,0.222.019,0.44,0.025,0.658l0.01,0.343,0.018,0.5,0.489,0.05a104.976,104.976,0,0,0,10.492.444" transform="translate(-669 -305.281)"/>
  <path id="dc" class="cls-2" d="M787.979,665.673c0.2-2.105-2.105-4.132-4.141-5.227-5.658-3.062-12.287-1.805-20.272,3.811a75.046,75.046,0,0,1-19.513,9.8l-0.247.093a111.521,111.521,0,0,0,13.946-9.842c13.941-11.465,25.242-6.5,28.385-4.712a8.27,8.27,0,0,1,4.208,5,2.741,2.741,0,0,1-.314,2.2c-0.75,1.012-2.2.768-3.233,0.416A1.987,1.987,0,0,0,787.979,665.673ZM675.856,652.946c-0.481-2.764-.309-6.324,2.658-8.929,2.153-1.891,4.537-1.5,5.779-.143,1.416,1.543,1.432,4.43-1.619,7.448a2.465,2.465,0,0,0-.633-1.443,3.166,3.166,0,0,0-4.431-.019A5.4,5.4,0,0,0,675.856,652.946Zm7.381-.719c3.725-3.556,3.6-7.109,1.818-9.05-1.541-1.686-4.6-2.235-7.221.064-4.389,3.854-3.33,9.485-2.345,12.438a10.467,10.467,0,0,1-3.073-6.295,10.3,10.3,0,0,1,2.957-8.23,9.769,9.769,0,0,1,9.922-2.973,7.7,7.7,0,0,1,5.362,6.259c0.059,0.624.066,1.193,0.077,1.765-0.17,2.966-2.051,4.994-4.048,7.11-2.475,2.625-5.037,5.34-4.041,9.931a8.179,8.179,0,0,0,5.51,5.945c0.054,0.02.108,0.039,0.164,0.056a9.849,9.849,0,0,0,7.681-.475l-0.03.056c-0.434.824-.856,1.62-1.225,2.366a26.731,26.731,0,0,1-3.462,5.239,4.876,4.876,0,0,0-.32-1.831c-0.73-1.745-2.541-3.059-5.871-4.26a8.8,8.8,0,0,1-5.865-6.61A12.656,12.656,0,0,1,683.237,652.227Zm43.389,15.385c-2.882-.07-5.876-2.251-6.91-3.077a9.731,9.731,0,0,1,8.485-3.381,3.143,3.143,0,0,1,3.038,3.08C731.2,665.632,729.966,667.353,726.626,667.612Zm0,1.032c0.017,0,.032,0,0.049,0h0c3.471,0.057,6.3-.969,7.758-2.819a5.161,5.161,0,0,0,.852-4.66,7.48,7.48,0,0,0-4.245-4.793,8.53,8.53,0,0,0-7.515.307c-2.869,1.458-4.286,4.008-5.928,6.96-0.687,1.237-1.4,2.513-2.268,3.8-2,2.954-5.93,3.919-7.942,4.231a17.374,17.374,0,0,0,7.661-8.258c3.267-7.873,7.322-11.452,12.76-11.261a10.419,10.419,0,0,1,7.361,3.6,9.867,9.867,0,0,1,2.555,7.438,8.4,8.4,0,0,1-2.9,6,8.984,8.984,0,0,1-6.93,1.621,10.992,10.992,0,0,1-6.587-3.916A11.349,11.349,0,0,0,726.629,668.644Zm-7.437,8.2c3.069,2.656,3.538,5.99,1.442,9.532a9.873,9.873,0,0,0-2.873-7.519c-4.392-4.571-10.96-4.757-18.5-.54-5.028,2.815-7.768,2.8-8.892,2.593a23.041,23.041,0,0,1,4.814-3.968l0.022,0.023c0.029-.026.05-0.058,0.079-0.085a27.145,27.145,0,0,1,7.456-3.208A18.088,18.088,0,0,1,719.192,676.839Zm-31.73,4.4a2.094,2.094,0,0,1,1.667.314c0.605,0.815,4.693,5.622,13.912.812,4.1-2.143,7.648-2.593,10.476-1.272a9.265,9.265,0,0,1,3.651,3.155,9.294,9.294,0,0,0-3.273-1.915c-2.569-.838-5.385-0.391-8.37,1.33-7.386,4.257-14.2,3.633-17.125.8a3.606,3.606,0,0,1-1.361-2.64A0.737,0.737,0,0,1,687.462,681.244Zm26.491-1.082c-3.17-1.411-6.985-1.006-11.391,1.293-6.372,3.326-9.943,1.825-11.566.55,1.618,0.078,4.406-.352,8.77-2.793,7.2-4.025,13.161-3.9,17.252.356a8.914,8.914,0,0,1,2.589,6.935A11.8,11.8,0,0,0,713.953,680.162Zm-26.27,5.053a8.566,8.566,0,0,0,3.107,1.856c3.68,1.311,9.154,1.006,15.252-2.51,2.716-1.565,5.25-1.984,7.528-1.245l0.19,0.065a8.441,8.441,0,0,1,2.9,1.832c-2.267-1.189-5.56-1.76-9.684.688-5.122,3.038-9.25,4.668-15.186,3.994-5.445-.605-8.193-3.723-8.493-6.532a2.875,2.875,0,0,1,1.774-3.272,3.146,3.146,0,0,1,2.317.094,1.735,1.735,0,0,0-.395.138,1.786,1.786,0,0,0-.978,1.355A4.467,4.467,0,0,0,687.683,685.215Zm40.092,2.569a101.681,101.681,0,0,0,15.831-4.557,59.826,59.826,0,0,0,16-8.8c-3.477,3.929-8.465,8.6-14.182,10.975C738.513,688.281,732.615,688.092,727.775,687.784Zm34.084-16.714c-3.037,2.943-8.853,7.474-18.619,11.192a100.768,100.768,0,0,1-20.07,5.3c-0.287,0-.565.012-0.836,0.023a104.258,104.258,0,0,1,21.443-9.07C752.9,675.817,758.6,673.021,761.859,671.07Zm-64.826-4.285-0.4.342a8.5,8.5,0,0,1-7.983,1.144c-0.049-.018-0.1-0.033-0.148-0.05a7.178,7.178,0,0,1-4.847-5.194c-0.881-4.06,1.384-6.463,3.784-9,0.355-.377.709-0.757,1.057-1.143-1.4,2.989-2.708,6.061-1.544,9.085a5.555,5.555,0,0,0,3.435,3.345,7.493,7.493,0,0,0,1.176.308,10.355,10.355,0,0,0,6.587-1.175C697.812,665.214,697.434,666,697.033,666.785Zm4.411,6.1c-0.131.053-.248,0.128-0.382,0.176l0.008,0.023a28.7,28.7,0,0,0-3.743,1.483,18.875,18.875,0,0,0,3.377-12.29A17.825,17.825,0,0,1,701.444,672.883Zm1.2-.551a18.231,18.231,0,0,0-.021-7.059,7.323,7.323,0,0,0,3.113,2.457,4.13,4.13,0,0,0,.643.174,3.4,3.4,0,0,0,1.462-.044A15.609,15.609,0,0,1,702.643,672.332Zm-3.807-9.65a8.911,8.911,0,0,1-7.093,1.918,4.767,4.767,0,0,1-3.83-3.007c-1.074-2.79.3-5.713,1.766-8.807q0.335-.708.658-1.423c-0.085.51-.173,1.013-0.261,1.491-0.513,2.794-.918,5,0.4,7.329a4.146,4.146,0,0,0,2.266,1.882,6.4,6.4,0,0,0,3.536.11,7.1,7.1,0,0,0,3.017-1.455A10.124,10.124,0,0,1,698.836,662.682Zm-3.168,8.972c0.367-.74.784-1.53,1.215-2.342a47.058,47.058,0,0,0,2.837-6.053l0.013-.012a16.933,16.933,0,0,1-5.056,12.769,24.926,24.926,0,0,0-3.783,2.875c0.064-.215.1-0.414,0.153-0.617A28.652,28.652,0,0,0,695.668,671.654Zm-10.926,7.459a3.9,3.9,0,0,0-2.469,4.361c0.275,2.563,2.258,5.335,6.1,6.7a14.784,14.784,0,0,0,3.307.746c6.226,0.706,10.518-.98,15.827-4.134,5.038-2.985,8.614-1.088,10.442.509a14.852,14.852,0,0,0-12.466,2.411,23.352,23.352,0,0,1-14.673,4.1,12.044,12.044,0,0,1-11.213-7.435,7.205,7.205,0,0,1-.122-6.609,5.183,5.183,0,0,1,4.34-2.437,4.6,4.6,0,0,1,3.99,1.927A4.2,4.2,0,0,0,684.742,679.113Zm61.082,7.244c5.666-2.356,10.561-6.778,14.067-10.647-3.077,5.763-6.683,12-13.978,13.69-4.707,1.083-8.815.368-12.771-.441A34.454,34.454,0,0,0,745.824,686.357Zm-2.338-8.83a106.36,106.36,0,0,0-19.713,8.089,60.3,60.3,0,0,1,12.765-7.434h0a67.744,67.744,0,0,1,15.512-4.542c1.6-.315,3.107-0.635,4.576-1A92.515,92.515,0,0,1,743.486,677.527ZM757.1,663.514a114.6,114.6,0,0,1-10.593,7.761c0.975-1.147,1.857-2.334,2.74-3.547,2.293-3.145,4.665-6.4,9.3-9.319,8.418-5.308,18.225-5.273,23.167-2.587l0.031,0.014a37.337,37.337,0,0,1,3.558,2.175C780.8,655.909,770.005,652.9,757.1,663.514ZM744.323,669.1c2.22-4.052,4.735-8.641,9.716-12.376,5.857-4.389,13.281-5.063,19.872-3.673a29.158,29.158,0,0,0-15.92,4.487c-4.8,3.027-7.233,6.362-9.582,9.588a31.23,31.23,0,0,1-5.889,6.592q-0.88.508-1.587,0.893A41.23,41.23,0,0,0,744.323,669.1Zm-13.429,10.7a53.86,53.86,0,0,0-8.651,5.7,7.5,7.5,0,0,0-.374-7.047A15.008,15.008,0,0,0,730.894,679.8Zm-14.248-5.73a18.7,18.7,0,0,0-6.4-1.994,12.1,12.1,0,0,0,4.857-2.777A8.428,8.428,0,0,0,716.646,674.065Zm1.789-9.8,0.068-.121c1.56-2.8,2.908-5.226,5.5-6.541a7.571,7.571,0,0,1,6.625-.287,6.445,6.445,0,0,1,3.671,4.111,4.118,4.118,0,0,1-.663,3.761,5.861,5.861,0,0,1-2.566,1.736,3.929,3.929,0,0,0,1.207-2.655,4.215,4.215,0,0,0-3.933-4.134,10.81,10.81,0,0,0-9.669,4.021C718.608,664.178,718.532,664.211,718.435,664.261Zm3.207-15.826a13.657,13.657,0,0,1,12.923,2.3c4.332,3.276,6.887,10.209,5.812,15.783a9.224,9.224,0,0,1-6.78,7.593,10.724,10.724,0,0,1-8.914-1.543,12.428,12.428,0,0,1-4.424-5.29,12.223,12.223,0,0,0,7.51,4.551,9.991,9.991,0,0,0,7.706-1.847,9.39,9.39,0,0,0,3.285-6.714,10.9,10.9,0,0,0-2.813-8.212,11.5,11.5,0,0,0-8.1-3.946c-5.926-.206-10.3,3.576-13.748,11.9a16.832,16.832,0,0,1-7.946,8.132,18.661,18.661,0,0,0,4.118-5.229c0.051-.076.1-0.137,0.153-0.219l-0.026-.016a18.254,18.254,0,0,0,1.628-4.347C713.481,654.763,716.893,650.183,721.642,648.435Zm-14.091,15.912a4.785,4.785,0,0,0,2.8-1.065,17.989,17.989,0,0,1-.914,2.024c-0.808,1.242-1.771,1.789-2.871,1.583-1.883-.368-3.888-2.771-4.6-4.849A8.706,8.706,0,0,0,707.551,664.347ZM669.1,648.794a14.311,14.311,0,0,1,3.17-10.646,15.744,15.744,0,0,1,10.882-5.518,11.1,11.1,0,0,1,9.8,3.9c2.667,3.283,3.314,8.064,1.772,13.12-1.337,4.374-1.219,7.384.341,8.952a4.571,4.571,0,0,0,3.782,1.1,5.318,5.318,0,0,1-2.795,1.469c-0.8.181-3.492,0.607-4.68-1.494-1.136-2-.78-3.943-0.288-6.631a33.787,33.787,0,0,0,.7-6.228,6.832,6.832,0,0,0-.111-2.521h0c0-.015,0-0.031-0.008-0.047h0A8.743,8.743,0,0,0,685.6,637.2a10.8,10.8,0,0,0-10.977,3.25,11.306,11.306,0,0,0-3.233,9.047,11.484,11.484,0,0,0,3.109,6.69A8.7,8.7,0,0,1,669.1,648.794Zm8.26,8.8-0.14-.364c-0.015-.04-1.6-4.277,1.066-6.594a2.265,2.265,0,0,1,2.27-.532,1.778,1.778,0,0,1,.723.472c0.507,0.547.655,1.516-.444,2.586A17.055,17.055,0,0,0,677.362,657.6Zm-0.426,4.989a12.976,12.976,0,0,1,1.745-5.15,12.289,12.289,0,0,0-.463,6.509,9.794,9.794,0,0,0,6.522,7.367c3,1.08,4.67,2.253,5.27,3.689a4.607,4.607,0,0,1,.114,2.764c-0.133.142-.252,0.26-0.382,0.394a6.414,6.414,0,0,0-1.451-2.329,7.687,7.687,0,0,0-4.186-2.177l0.027-.094A9.618,9.618,0,0,1,676.936,662.587Zm29.26,30.319c-0.612.32-1.236,0.646-1.882,0.977-10.44,5.358-21.257,4.179-26.3-2.874-2.966-4.144-3.551-9.044-1.523-12.787A7,7,0,0,1,685,674.907a6.6,6.6,0,0,1,2.55,1.641,5.287,5.287,0,0,1,1.361,2.437l-0.038.037a5.736,5.736,0,0,0-5.132-2.722,6.237,6.237,0,0,0-5.156,2.941,8.217,8.217,0,0,0,.074,7.568,13.307,13.307,0,0,0,7.628,7.231,14.309,14.309,0,0,0,4.5.8,24.334,24.334,0,0,0,15.278-4.279,13.812,13.812,0,0,1,11.77-2.228C713.627,689.1,710.126,690.857,706.2,692.906Zm43.7-1.589c-7.246,3.153-12.5,1.277-17.978-.7a58.675,58.675,0,0,0-5.73-1.818,57.763,57.763,0,0,1,5.935,1.01c4.313,0.888,8.775,1.808,14.021.6,8.1-1.867,11.817-8.857,15.1-15.025l0.012-.022c-0.028.086-.055,0.16-0.084,0.247C759.205,681.526,756.981,688.238,749.9,691.317Zm14.9-23.559c-3.759,3.059-7.811,3.857-12.938,4.867-0.778.153-1.581,0.314-2.4,0.483a69.773,69.773,0,0,0,14.7-8c5.133-3.611,9.644-5.307,13.659-5.192C770.609,660.92,765.252,667.2,764.791,667.758Zm21.007-4.442c-0.038-.086-0.1-0.184-0.141-0.275a3.529,3.529,0,0,1,1.3,2.533,1.08,1.08,0,0,1-.716.784A5.617,5.617,0,0,0,785.8,663.316Zm6.024,6.775c-1.342.664-3.379,0.483-5.151-1.826,1.308,0.4,3.116.606,4.189-.847a3.742,3.742,0,0,0,.5-3.029,7.054,7.054,0,0,0-1.233-2.594,13.681,13.681,0,0,1,3.148,3.709A3.374,3.374,0,0,1,791.822,670.091Z" transform="translate(-669 -305.281)"/>
  <path id="dc-2" data-name="dc" class="cls-2" d="M1012.7,410.239c-0.88.817-1.79,1.642-2.7,2.386,1.1-.1,2.19-0.174,3.28-0.218a28.515,28.515,0,0,0,7.3-6.11c-0.13-.077-0.21-0.123-0.25-0.145C1018.2,405.166,1015.53,407.632,1012.7,410.239Zm6.81,1.812a20.635,20.635,0,0,0,7.28-7.919c1.34-2.814.89-5.582-1.13-7.054-2.38-1.735-6.9-1.5-11.61,2.946-4.42,4.171-9.91,9.365-19.081,13.393a63.481,63.481,0,0,1-15.876,4.272c1.669,1.239,3.314,2.343,4.919,3.327a59.536,59.536,0,0,1,14.044-6.119l0-.009a45.264,45.264,0,0,0,10.208-6.23c0.63-.535,1.29-1.119,1.98-1.722,4.44-3.888,9.46-8.3,12.23-6.219a2.4,2.4,0,0,1,.97,2.194c-0.2,2.833-4.4,6.924-8.12,9.437,1.22-.015,2.42,0,3.59.041C1019.14,412.265,1019.4,412.115,1019.51,412.051Zm5.63,0.524a18.378,18.378,0,0,0,5.03-5.661,12.651,12.651,0,0,0,1.45-9.867,8.337,8.337,0,0,0-4.58-5.123c-5.29-2.477-11.8-.608-17.41,5l-1.18,1.181c-4.66,4.69-9.941,10.007-16.848,12.9a48.441,48.441,0,0,1-16.767,3.374c0.486,0.385.961,0.719,1.453,1.127,0.555,0.459,1.107.888,1.66,1.317,0.143-.023.257-0.04,0.45-0.068a64.123,64.123,0,0,0,16.155-4.278c9.007-3.959,14.207-8.869,18.787-13.2,5.14-4.848,10.19-5.019,12.92-3.031,2.45,1.777,3.02,5.047,1.46,8.327a21.074,21.074,0,0,1-6.98,7.9c1.4,0.084,2.74.2,4.03,0.354C1024.91,412.737,1025.05,412.636,1025.14,412.575Zm-45.015,15.747a17.89,17.89,0,0,1-5.718-2.622c-1.368-.876-2.67-1.872-4.047-2.925a51.416,51.416,0,0,0-9.5-6.109c-3.946-1.886-8.163-2.265-11.284-1.009A5.918,5.918,0,0,0,946.059,419a8.078,8.078,0,0,0,.409,6.54,13.621,13.621,0,0,0,6.317,6.244,11.679,11.679,0,0,1-2.088-2.6,7.906,7.906,0,0,1-.977-6.5,5.265,5.265,0,0,1,3.771-3.393c3.318-.908,7.622.452,11.254,3.569,6.227,5.334,10.2,5.747,13.956,5.544C978.785,428.4,979.47,428.362,980.125,428.322ZM955.8,425.944a2.33,2.33,0,0,0-.369,2.439c0.726,2.243,3.441,4.76,7.244,5.331a32.382,32.382,0,0,0,7.739-.776,13.382,13.382,0,0,1-7.243-3.45C959.421,426.322,957.228,424.6,955.8,425.944Zm18.907,5.226a20.536,20.536,0,0,1,3.212-1.715c-4.38.1-8.259-1.023-13.847-5.811-4.039-3.462-7.981-4.009-10.3-3.356a4.26,4.26,0,0,0-3.069,2.726,6.881,6.881,0,0,0,.887,5.653,9.173,9.173,0,0,0,5.56,4.392q0.659,0.139,1.336.252a8.959,8.959,0,0,1-4.03-4.608,3.258,3.258,0,0,1,.641-3.507c2.165-2.044,5.069.4,8.744,3.507C967.676,431.944,971.332,432.769,974.708,431.17Zm11.714-23.265a22.494,22.494,0,0,0,2.777-1.166c-1.209-1.465-5.572-5.9-14.123-5.9a19.781,19.781,0,0,0-13.75,5.423c0.929,0.358,1.862.733,2.814,1.192a20.408,20.408,0,0,1,11-3.485c0.142,0,.286,0,0.433,0,5.315,0.13,8.434,1.781,10.193,3.312C985.889,407.392,986.194,407.684,986.422,407.905Zm-49.979,7.239a11.422,11.422,0,0,0,1.9,10.556c0.055,0.066.235,0.267,0.411,0.462,1.958,0.673,3.837,1.454,5.681,2.259a15.151,15.151,0,0,1-4.438-8.511,8.655,8.655,0,0,1,3.15-8.344c6.526-5.092,19.162-2.61,28.754,5.655,9.763,8.414,15.394,9.465,20.932,9.455a67.4,67.4,0,0,1-17.2-10.377c-10.923-9.039-20.3-12.44-28.688-10.374C941.667,407.222,937.841,410.582,936.443,415.144Zm67.837-.719c-1.17.22-2.33,0.467-3.48,0.766a61.467,61.467,0,0,0-15.8,6.427c0.788,0.466,1.562.9,2.325,1.305a70.279,70.279,0,0,1,29-6c0.31,0,.61,0,0.92,0a73,73,0,0,1,11.64,1.055c-2.09-.746-4.28-1.5-6.47-2.178A38.909,38.909,0,0,0,1004.28,414.425Zm12.04,3.53A69.362,69.362,0,0,0,988.5,423.54c1.1,0.56,2.154,1.06,3.175,1.513a78.725,78.725,0,0,1,25.089-4.46c9.29,0,19.43,2.889,28.81,8.109l0.03-.051c0.24,0.142.51,0.322,0.79,0.5,0.35,0.2.71,0.384,1.06,0.594,8.83,5.273,14.51,7.523,19.31,7.56a18.634,18.634,0,0,1-5.76-3.345,107.569,107.569,0,0,0-9.24-6.879c-12.41-6.316-22.48-8.983-34.53-9.122C1016.93,417.958,1016.62,417.955,1016.32,417.955Zm4.89-12.482a5.922,5.922,0,0,0,1.21-2.638,1.363,1.363,0,0,0-.57-1.294c-2.11-1.567-7.2,2.9-10.93,6.168-0.69.608-1.36,1.2-1.99,1.735a40.891,40.891,0,0,1-6.28,4.286c1.79-.387,3.6-0.71,5.41-0.925a36.976,36.976,0,0,0,3.94-3.323c2.99-2.761,6.09-5.612,8.85-4.221C1020.91,405.29,1021.01,405.35,1021.21,405.473Zm-28.235-1a24.07,24.07,0,0,0-19.8-7.395c-10.226.819-15.045,6.248-16.233,7.813a29.507,29.507,0,0,1,3.345.969c2.176-2.5,7.741-6.054,14.785-6.054,9.379,0,13.924,4.979,15.061,6.448A31.331,31.331,0,0,0,992.975,404.471Zm-4.3,57.443,0.291-.007c4.342-.2,7.7-1.819,8.993-4.355a3.447,3.447,0,0,0,0-3.5,4.426,4.426,0,0,0-3.1-1.683,12.937,12.937,0,0,0-8.9,2.585c3.025-.754,5.88-0.954,7.49-0.074a2.4,2.4,0,0,1,1.283,1.761,3.076,3.076,0,0,1-.819,2.541A10.873,10.873,0,0,1,988.674,461.914Zm12.536-2.024a8.615,8.615,0,0,0,2.49-7.125,5.933,5.933,0,0,0-3.39-4.574c-5.185-2.476-10.813.586-14.011,5.313a13.314,13.314,0,0,1,8.717-2.147,5.409,5.409,0,0,1,3.8,2.127,4.46,4.46,0,0,1,.062,4.536,8.014,8.014,0,0,1-3.552,3.359,40.132,40.132,0,0,0,5.486-1.1C1000.98,460.115,1001.16,459.949,1001.21,459.89Zm4.55-1.76a8.332,8.332,0,0,0,2.05-1.87,5.969,5.969,0,0,0,1.08-4.82c-0.41-2.487-2.34-4.974-5.15-6.659a13.934,13.934,0,0,0-11.634-1.266,10.543,10.543,0,0,0-7.153,10.184c3.343-5.536,9.815-9.294,15.807-6.436a6.95,6.95,0,0,1,3.96,5.346,9.429,9.429,0,0,1-1.96,7.025,15.318,15.318,0,0,0,2.99-1.494S1005.76,458.133,1005.76,458.13Zm-23.072-12.966c-1.308,2.764-.84,5.772,1.244,8.452a11.451,11.451,0,0,1,7.843-11.076,14.946,14.946,0,0,1,12.5,1.359c3.07,1.836,5.17,4.59,5.64,7.371a8.219,8.219,0,0,1,.09,1.2,10.275,10.275,0,0,0-.03-5.087c-1.42-5.845-7.33-9.079-15.92-8.8C988.139,439.175,984.173,442.023,982.688,445.164Zm-15.739,14.6a74.707,74.707,0,0,0,10.214,1.692c1.975,0.044,6.06-.225,8.164-2.4a1.336,1.336,0,0,0,.3-1.676,1.972,1.972,0,0,0-2.263-.554c-0.414.144-.828,0.3-1.248,0.466A26.575,26.575,0,0,1,966.949,459.759Zm15.582,2.008c4.744-.159,9.038-1.456,10.6-3.257a2.024,2.024,0,0,0,.58-1.7,1.369,1.369,0,0,0-.762-1.017c-1.287-.71-4.039-0.541-7.244.313a2.489,2.489,0,0,1,.794.723,2.347,2.347,0,0,1-.438,2.944A8.21,8.21,0,0,1,982.531,461.767Zm-18.608-20.462v0.026c-0.068,0-.133-0.017-0.2-0.021s-0.1,0-.16,0a27.234,27.234,0,0,1-3.445-.228,39.551,39.551,0,0,1-14.593-4.827,48.406,48.406,0,0,0-13.348-4.95,37.078,37.078,0,0,0-7.012-.769,36.265,36.265,0,0,1,14.459,6.185c6.048,4.125,10.825,7.383,18.452,9.089,5.785,1.286,9.421.015,10.47-.439a12.623,12.623,0,0,1-.352-3.027,13.06,13.06,0,0,1,.128-1.617A17.254,17.254,0,0,1,963.923,441.305Zm20.6-13.7v0.012q1.581-.249,3.252-0.351c-4.376-.815-9.392-3.093-16.554-9.266-9.24-7.959-21.291-10.43-27.448-5.622a7.662,7.662,0,0,0-2.764,7.39,14.577,14.577,0,0,0,7.687,10.443,14.433,14.433,0,0,1-3.163-4.225,9.2,9.2,0,0,1-.444-7.349,6.931,6.931,0,0,1,4.1-3.938c3.382-1.36,7.908-.972,12.115,1.037a52.135,52.135,0,0,1,9.678,6.219c1.359,1.041,2.643,2.023,3.973,2.877C978.983,427.41,981.347,427.782,984.527,427.607ZM948.482,433.3c5.582,3.781,10.264,6.691,15.238,6.972a14.95,14.95,0,0,0,4.8-.692,12.868,12.868,0,0,1,3.143-5.867,34.017,34.017,0,0,1-8.931,1.042l0,0.018c-0.038,0-.071-0.017-0.108-0.023-6.724-.17-12.059-2.508-17.268-4.8a52.884,52.884,0,0,0-12.422-4.256A61.17,61.17,0,0,1,948.482,433.3ZM944,443.53c3.406,2.194,9.728,6.261,15.888,7.621,7.111,1.568,10.2-.351,10.919-0.911a13.384,13.384,0,0,1-2-3.849,15.217,15.217,0,0,1-5.827,1.024,23.421,23.421,0,0,1-5.13-.6c-7.818-1.746-12.669-5.054-18.809-9.239-8.161-5.567-15.926-7.489-23.092-5.737a20.78,20.78,0,0,0-8.418,4.951,35.914,35.914,0,0,1,3.749-.854C922.311,434.105,934.234,436.927,944,443.53Zm10.582,9.375c0.2,0.2.523,0.51,0.752,0.734,0.254,0.192.5,0.34,0.758,0.521l0.394,0.11c9.573,2.85,15.876,1.807,17.891-.427a18.96,18.96,0,0,1-2.935-2.79c-0.67.536-2.6,1.738-6.473,1.738a24.654,24.654,0,0,1-5.3-.632,38.8,38.8,0,0,1-9.619-3.806C951.668,449.854,953.151,451.385,954.581,452.905Zm150.829-29.063c-0.75-3.939-4.83-4.5-8.23-4.267-0.5.077-.98,0.138-1.51,0.242-3.46.672-7.44,1.666-11.65,2.719-2.42.6-4.9,1.221-7.38,1.806a60.3,60.3,0,0,1-11.85,1.551c2.17,0.94,4.29,1.809,6.38,2.6a124.706,124.706,0,0,0,21.08-3.957c5.68-1.462,9.56-1.379,11.21.251a3.142,3.142,0,0,1,.76,3.016A5.206,5.206,0,0,0,1105.41,423.842ZM961,458.106l-0.029-.01,0.009,0Zm19-.993a26.884,26.884,0,0,1-4.77-2.646c-1.257,1.45-3.948,2.6-8.234,2.6a34.548,34.548,0,0,1-7.926-1.041A24.109,24.109,0,0,0,980,457.113Zm25.7-17.066a11.234,11.234,0,0,1,5.27,7.091,10.411,10.411,0,0,1-4.93,12.042l-0.02-.024c-2.7,1.7-6.751,2.862-12.142,3.452-1.48.164-3.023,0.251-4.582,0.306-0.143.008-.277,0.029-0.422,0.035v-0.025c-0.757.022-1.51,0.054-2.273,0.054-1.666,0-3.333-.066-4.985-0.158-0.036,0-.071,0-0.107,0-0.2,0-.393,0-0.59,0l0-.039q-1.878-.118-3.682-0.3l-0.418,0v-0.034a63.392,63.392,0,0,1-12.293-2.322c5.38,2.754,13.021,5.305,23.411,5.894,15.011,0.854,23.941-2.967,26.611-11.327a10.3,10.3,0,0,0-1.02-9.014,13.455,13.455,0,0,0-5.14-4.446c-0.11-.04-0.2-0.092-0.31-0.13l0.01-.033A20.245,20.245,0,0,0,1005.7,440.047Zm-78.327-30.106c-1.235-7.587-7.272-11.3-12.442-10.587-6.254.916-10.269,6.822-9.768,14.365,0.482,7.186,5.234,12.38,7.571,14.527a24.953,24.953,0,0,1,3.274-1.651c-2.611-1.9-7.693-7.174-7.305-14.615a9.588,9.588,0,0,1,3.436-7.056,6.9,6.9,0,0,1,5.774-1.346,7.987,7.987,0,0,1,5.335,3.779c2.119,3.449,2.46,8.851,1.025,15.377A17.7,17.7,0,0,0,927.373,409.941Zm-7.011,2.614a4.375,4.375,0,0,0-3.588-1.244,4.3,4.3,0,0,0-3.613,2.479,10.294,10.294,0,0,0-.1,8.35,16.157,16.157,0,0,0,4.111,3.994,30.494,30.494,0,0,1,4.374-1.226,14.579,14.579,0,0,1-4.459-3.508,3.307,3.307,0,0,1-.788-3.3,2.424,2.424,0,0,1,1.969-1.528,3.525,3.525,0,0,1,3.244,1.632,8.865,8.865,0,0,1,1.148,2.2C922.75,416.951,921.939,414.092,920.362,412.555Zm151.8,29.356a8.147,8.147,0,0,0,1.44-.793c2.07-1.563,3.28-4.2,3.69-7.751-0.82,1.635-2.7,3.715-7.05,4.656a15.871,15.871,0,0,1-3.35.358c-3.77,0-8.02-1.316-13.74-4.258,1.77,1.309,3.72,2.714,5.8,4.075C1062.98,440.842,1068.45,443.1,1072.16,441.911ZM985.649,436c4.293-2.348,11.572-2.849,17.981-2.136-6.648-1.895-13.231-2.052-18.223-.275a11.883,11.883,0,0,0-7.1,5.9c-2.027,4.3-.454,8.411,2.049,11.434-0.105-.246-0.189-0.442-0.2-0.485C978,444.451,980.029,439.078,985.649,436Zm-67.012-18.416a1.776,1.776,0,0,0-.23.015,1.416,1.416,0,0,0-1.15.882,2.329,2.329,0,0,0,.625,2.264,13.777,13.777,0,0,0,4.659,3.54,12.752,12.752,0,0,0-1.853-5.454A2.7,2.7,0,0,0,918.637,417.581Zm119.913-.792-0.19-.029,0.01-.023c-2.9-.831-5.96-1.581-9.2-2.211a69.071,69.071,0,0,0-12.87-1.168,44.182,44.182,0,0,1,6.41,1.464c3.52,1.089,7.03,2.366,10.14,3.5,1.82,0.66,3.45,1.257,4.8,1.7l-0.03.075a92.2,92.2,0,0,1,13.93,5.741l0.03-.052c0.2,0.1.44,0.254,0.67,0.395,0.25,0.129.49,0.235,0.75,0.367,9.13,4.719,15.22,6.7,22.1,4.4-1.34-.42-2.7-0.886-4.07-1.4l-0.07.007v-0.034c-3.26-1.232-6.58-2.67-10.04-4.19A172.447,172.447,0,0,0,1038.55,416.789Zm-40.885,9.361a92.428,92.428,0,0,1,17.055,1.537l0.02-.042c0.11,0.031.22,0.077,0.33,0.11a64.137,64.137,0,0,1,9.83,2.587c8.76,3.188,16.3,7.464,23.27,11.6a78.912,78.912,0,0,1-6.39-5.613c-2.61-2.612-9.63-7.511-14.34-9.027C1015.46,424.179,1004.3,425.256,997.665,426.15Zm65.565,16.281a20.745,20.745,0,0,0,3.52.446,29.394,29.394,0,0,1-8.37-3.818c-3.16-2.075-6.07-4.263-8.41-6.024-1.59-1.2-3-2.25-4.12-3-9.44-5.416-19.72-8.413-29.09-8.413a78.179,78.179,0,0,0-23.686,4.036c0.049,0.02.1,0.039,0.145,0.06,0.656-.086,1.566-0.207,2.1-0.284,6.2-.892,18.723-2.683,32.323.852V426.28c0.04,0.01.08,0.029,0.11,0.039,0.79,0.208,1.59.425,2.38,0.671,7.48,2.3,12.3,5.293,16.97,8.194C1051.89,438.16,1056.41,440.972,1063.23,442.431ZM953.514,389.055c-0.339-.312-0.688-0.636-1.059-0.983-1.077-1-2.3-2.144-3.649-3.305-3.377-1.976-5.768-1.682-6.871-.749a1.941,1.941,0,0,0-.616,2.211c0.424,1.1,2,2.27,5.214,2.162A19.713,19.713,0,0,1,953.514,389.055Zm41.053,10.213a26.453,26.453,0,0,1,2.306,2.015q1.047-.972,2.025-1.968a4.309,4.309,0,0,0-2.258-.491A4.5,4.5,0,0,0,994.567,399.268Zm6.7-2.441,0.12-.136a10.1,10.1,0,0,0-4.883-1.215,17.471,17.471,0,0,0-4.59.648c-0.518.128-1.032,0.245-1.556,0.343a33.568,33.568,0,0,1,3.313,2.12,5.242,5.242,0,0,1,2.966-.8,4.823,4.823,0,0,1,2.984.77Q1000.458,397.694,1001.27,396.827Zm-28.172-.779a25.109,25.109,0,0,1,20.709,7.81c0.807-.608,1.581-1.233,2.307-1.877a30.974,30.974,0,0,0-29.615-7.527,23.139,23.139,0,0,0-13.95,9.92,23.815,23.815,0,0,1,3.252.346C956.363,403.852,961.169,397.005,973.1,396.048Zm29.042-.149c0.68-.716,1.35-1.422,2.04-2.111a17.742,17.742,0,0,0-8.4-1.817,38.075,38.075,0,0,0-8.895,1.5c-0.707.187-1.394,0.367-2.078,0.524a32.758,32.758,0,0,1,3.928,1.609,14.764,14.764,0,0,0,2.933-.482,18.613,18.613,0,0,1,4.836-.679,11.281,11.281,0,0,1,5,1.14C1001.7,395.676,1001.94,395.8,1002.14,395.9ZM979.573,409.34a30.264,30.264,0,0,0,5.73-1.074c-1.344-1.249-4.253-3.129-9.758-3.264-0.133,0-.265,0-0.395,0a16.192,16.192,0,0,0-2.258.174,11.854,11.854,0,0,1,6.233,3.686C979.19,408.934,979.389,409.143,979.573,409.34Zm-18.822-13.794a26.1,26.1,0,0,1,5.487-2.091c0.94-.242,1.846-0.409,2.749-0.568-4.5-1.279-8.716-3.77-13.378-7.891-5.771-5.1-12.529-10.312-19.893-7.558a8.312,8.312,0,0,0-4.945,4.633,9.238,9.238,0,0,0,.132,7.158c2.026,4.411,5.871,6.635,10.909,6.282a5.077,5.077,0,0,0,4.585-3.6,3.543,3.543,0,0,0,.1-2.142,6.823,6.823,0,0,1-5.28,2.206,8.292,8.292,0,0,1-3.765-.864,6.325,6.325,0,0,1-3.338-4.335,5.349,5.349,0,0,1,1.029-4.5,6.144,6.144,0,0,1,4.344-2.146c3.138-.272,6.841,1.161,9.955,3.826,1.384,1.185,2.624,2.345,3.72,3.37a30.487,30.487,0,0,0,3.866,3.3l-0.031.05A9.6,9.6,0,0,1,960.751,395.546Zm-38.38,12.35a6.9,6.9,0,0,0-4.662-3.31,5.936,5.936,0,0,0-4.936,1.152,8.549,8.549,0,0,0-3.043,6.294,14.728,14.728,0,0,0,1.583,7.3,10.814,10.814,0,0,1,.939-6.023,5.336,5.336,0,0,1,4.447-3.024,5.394,5.394,0,0,1,4.382,1.533c1.743,1.7,2.677,4.731,2.624,8.373C924.537,414.987,924.1,410.711,922.371,407.9Zm-15.4,28.012a21.778,21.778,0,0,1,8.373-4.948l-0.013-.048c0.137-.035.279-0.047,0.417-0.08a33.193,33.193,0,0,1,16.636-.53,49.164,49.164,0,0,1,13.606,5.038,41.04,41.04,0,0,0,10.874,4.143,63.225,63.225,0,0,1-8.959-5.328c-6.948-4.71-15.019-8.042-21.324-8.862a32.074,32.074,0,0,0-3.349.345C914.287,427.043,908.662,431.6,906.971,435.908ZM945,382.308a10.977,10.977,0,0,0-5.427-1.158,5.151,5.151,0,0,0-3.639,1.773,4.331,4.331,0,0,0-.814,3.647,5.3,5.3,0,0,0,2.8,3.627c2.261,1.173,5.827.987,7.592-.8-2.629-.15-4.529-1.156-5.157-2.8a2.936,2.936,0,0,1,.911-3.362A4.887,4.887,0,0,1,945,382.308Zm24.462,23.686A21.549,21.549,0,0,0,965.184,408c0.185,0.1.375,0.209,0.561,0.309l0.008-.03a44.548,44.548,0,0,0,12.481,1.149,10.891,10.891,0,0,0-7.524-3.516C970.521,405.912,969.881,405.961,969.462,405.994Zm74.618,11.448c3.29,1.114,6.37,2.31,9.3,3.521a64.2,64.2,0,0,0,13.87-.563c3.51-.545,7.65-1.536,12.04-2.587,5.35-1.282,10.9-2.61,16.34-3.407,10.6-1.567,17.2.561,19.6,6.3a7.83,7.83,0,0,1,.32.911,11.974,11.974,0,0,0-1.51-5.649c-2.41-4.115-9.79-5.786-14.4-5.769a120.571,120.571,0,0,0-17.64,3.185C1071.11,415.9,1058.94,418.722,1044.08,417.442Zm-73.5,57.148a14.922,14.922,0,0,1,1.091,2.38,15.5,15.5,0,0,0,8.775-5.415c-0.1.068-.186,0.133-0.219,0.155A16.645,16.645,0,0,1,970.578,474.59Zm-0.632-1.034a16.005,16.005,0,0,0,8.838-2.155,25.188,25.188,0,0,1-11.09-.488A16.608,16.608,0,0,1,969.946,473.556Zm-11.911-7.805a76.971,76.971,0,0,1-6.659-7.208c-1.69-1.992-3.436-4.051-5.333-6.026a37.823,37.823,0,0,0-26.377-11.8c-10.778-.477-22.68,4.856-23.634,17.788a14,14,0,0,0,3.954,11.237c4.027,4.15,9.885,5.746,14.331,5.941a19.5,19.5,0,0,1-9.892-5.035,12.438,12.438,0,0,1-3.914-9.794c0.519-8.437,6.974-14.334,16.843-15.387,10.991-1.188,20.634,3.135,28.653,12.806,2.21,2.666,4.12,4.864,5.942,6.743A23.529,23.529,0,0,1,958.035,465.751Zm-34.356-2.619a14.2,14.2,0,0,1,5.407,1.736c2.1,1.057,4.5,2.242,11,2.465a30.7,30.7,0,0,1-2.733-2.63,23.756,23.756,0,0,0-5.232-4.447c-4.777-2.868-10.761-3.641-14.554-1.873a5.652,5.652,0,0,0-3.406,4.332,4.65,4.65,0,0,0,1.877,4.586,9.243,9.243,0,0,0,.986.615,2.979,2.979,0,0,1-.236-2.416C917.48,463.6,920.059,462.715,923.679,463.132Zm90.351-18.494c0.12,0.161.26,0.31,0.36,0.474a11.271,11.271,0,0,1,1.14,9.889c-2.58,8.079-10.54,12.16-23.663,12.16q-1.92,0-3.985-.118c-13.262-.75-22.16-4.662-27.616-8.186,5.18,5.077,11.2,9.316,21.928,10.519l0.028,0h0l0.019,0,0.656,0.073-0.009.018c2.937,0.39,15.635,1.705,27.2-2.4,4.55-2.155,8.84-7.723,8.33-13.66A13.413,13.413,0,0,0,1014.03,444.638Zm-34.156,25.447c-12.516-2-18.384-8.26-24.553-14.883a89.051,89.051,0,0,0-8.162-8.019,46.626,46.626,0,0,0-3.757-2.809c-0.255-.164-0.445-0.283-0.666-0.425-9.419-6.136-20.763-8.746-31.286-6.993-7.7,1.283-13.911,4.813-17.486,9.94a18.6,18.6,0,0,0-2.908,14.432c0.985,5.169,6.345,12.547,16.762,14.223a20.437,20.437,0,0,1-8.57-5.087,15.185,15.185,0,0,1-4.243-12.032c1-13.618,13.518-19.313,24.708-18.738A38.794,38.794,0,0,1,946.785,451.8c1.919,2,3.678,4.072,5.377,6.074,2.811,3.315,5.514,6.485,8.462,8.69a22.03,22.03,0,0,1,4.954,2.594A24.687,24.687,0,0,0,979.874,470.085ZM939.05,468.33c-6-.313-8.341-1.492-10.425-2.541a13.225,13.225,0,0,0-5.064-1.636c-3.668-.418-5.407.6-5.809,1.7a2.574,2.574,0,0,0,1.075,2.721c0.071,0.062.366,0.276,0.683,0.5,4.778,1.636,11.354,1.458,14.6.194h0a22.235,22.235,0,0,1,5.05-.865c0.044-.023.088-0.042,0.133-0.064Zm4-4.853c-8.247-11.155-19.143-11.916-23.469-11.741-4.5.191-8.106,1.9-10.163,4.81A9.856,9.856,0,0,0,908.2,465.3a9.5,9.5,0,0,0,5.631,6.014c4.2,1.833,10.188,1.747,15.161-.094-0.524.028-1.052,0.054-1.6,0.054-4.364,0-9.226-.93-12.007-3.175a5.691,5.691,0,0,1-2.245-5.551,6.637,6.637,0,0,1,3.987-5.1c4.089-1.9,10.468-1.112,15.52,1.922a24.7,24.7,0,0,1,5.45,4.62,23.206,23.206,0,0,0,3.592,3.259,31.339,31.339,0,0,1,3.381-1.187C944.394,465.243,943.72,464.386,943.047,463.477Zm2.165-4.544c-7.785-9.389-17.106-13.574-27.749-12.441-9.477,1.013-15.43,6.4-15.925,14.427a11.443,11.443,0,0,0,3.611,9,19.415,19.415,0,0,0,14.622,5.093,30.963,30.963,0,0,0,4.717-1.593,21.044,21.044,0,0,1-11.071-1.157,10.622,10.622,0,0,1-6.205-6.657,10.849,10.849,0,0,1,1.363-9.654c2.244-3.178,6.136-5.04,10.961-5.246,4.5-.189,15.8.616,24.339,12.16,0.765,1.035,1.532,1.994,2.3,2.915a26.154,26.154,0,0,1,4.393-.685C948.919,463.34,947.177,461.3,945.212,458.933Zm-91.529,4.281c4.331-.691,7.5-3.04,8.926-6.614,2.454-6.157.129-9.991-1.7-11.869,1.468,3.588,1.414,7-.228,9.778a10.654,10.654,0,0,1-9.429,4.881h-0.192c-4.848-.069-8.921-1.689-11.774-4.687-3.112-3.268-4.65-8.055-4.446-13.843,0.272-7.657,4.706-16.753,10.785-22.122,6.164-5.449,20.7-11.682,33.475-5.177,10.828,5.512,12.242,17.077,12.122,25.059,0.341-1.538.713-3.1,1.146-4.717,2.4-8.949.075-17.183-6.228-22.024-9.584-7.369-31.926-8.434-45.1,6.673-11.55,13.241-11.074,29.979-3.942,38.512A18.471,18.471,0,0,0,853.683,463.214Zm243.7-32.952c-0.63-.954-2.22-1.191-4.05-0.6a44.356,44.356,0,0,1-10.35,2.358c2.22,0.545,4.45,1.051,6.66,1.468v-0.031a17.621,17.621,0,0,0,7.44-.661A2.267,2.267,0,0,0,1097.38,430.262Zm11.63-.424a7.006,7.006,0,0,0,.48-6.578c-1.13-2.387-3.35-3.712-6.72-4a5.735,5.735,0,0,1,3.65,4.392c0.76,4.013-3.81,7.555-5.64,8.582l-0.02-.043a15.523,15.523,0,0,1-5.69,2.122c1.6,0.2,3.19.327,4.75,0.392C1103.96,434.453,1107.31,432.687,1109.01,429.838Zm4.71-.359a9.266,9.266,0,0,0,.56-8.372c-2.2-5.251-8.42-7.153-18.5-5.684-5.4.793-10.92,2.113-16.25,3.391-4.41,1.055-8.58,2.054-12.13,2.6a65.447,65.447,0,0,1-11.28.7c1.78,0.762,3.53,1.522,5.22,2.263,0.41,0.183.82,0.357,1.23,0.538a59.741,59.741,0,0,0,13.83-1.584c2.48-.582,4.96-1.2,7.37-1.8,4.23-1.055,8.22-2.051,11.7-2.731,0.49-.095.93-0.146,1.4-0.22v-0.025c0.07-.006.13,0,0.2-0.007,7.08-1.085,11.47.293,13.36,4.268a8.016,8.016,0,0,1-.54,7.546,10.622,10.622,0,0,1-5.21,4.305c0.06,0,.11,0,0.16,0v-0.012C1108.84,434.228,1112,432.391,1113.72,429.479Zm-6.3-19.114c3.16,1,6.08,2.641,7.51,5.087,2.15,3.672,1.96,8.521.83,11.7l-0.01,0a10.559,10.559,0,0,1-1.14,2.856,10.927,10.927,0,0,1-3.31,3.458c6.61-2.231,9.34-7.253,9.04-11.681C1120,416.757,1115.83,411.552,1107.42,410.365Zm-92.68,18.368a88.914,88.914,0,0,0-17.64-1.547c2.528,0.86,4.52,1.361,5.71,1.658l-0.01.021c10.27,2.326,17.96,6.131,25.98,10.142,3.06,1.532,6.18,3.088,9.48,4.572-2.72-1.861-5.77-4.119-8.44-6.3C1026.14,434.288,1020.04,430.3,1014.74,428.733Zm83.5,0.959a2.912,2.912,0,0,1,.24,2.615,12.189,12.189,0,0,0,1.8-.965v-0.006c0.01-.009.04-0.026,0.05-0.035a6.325,6.325,0,0,0,2.87-3.585,2.176,2.176,0,0,0-.46-2.189c-0.79-.781-3.16-1.815-10.24.012a136.015,136.015,0,0,1-19.12,3.786c1.32,0.46,2.62.875,3.92,1.228l0.3,0.079v-0.006c0.01,0,.01.008,0.01,0.01,0.66,0.179,1.33.351,1.99,0.525a40.719,40.719,0,0,0,13.41-2.482C1095.77,427.787,1097.52,428.615,1098.24,429.692Zm-87.59,6.817c-0.11-.056-0.24-0.1-0.35-0.153-0.75-.267-1.65-0.59-1.75-0.616-6.88-1.658-17.194-1.694-22.4,1.162-2.475,1.354-7.831,5.318-5.043,13.121a8.334,8.334,0,0,1,.654-5.3c1.594-3.362,5.77-6.443,11.908-7.146v-0.028c0.161-.009.317-0.007,0.477-0.012a24.381,24.381,0,0,1,4.972.012,27.157,27.157,0,0,1,9.738,2.761c6.14,2.347,10.1,7.173,10.6,13.017,0.39,4.575-1.88,8.926-4.98,11.893,0.07-.033.13-0.058,0.2-0.09,5.72-2.939,8.82-7.369,8.75-12.471C1023.33,446.414,1018.44,440.226,1010.65,436.509Zm44.88,10.309v0.01c-0.05-.02-0.1-0.053-0.14-0.073a55.946,55.946,0,0,1-7.35-3.7c-7.04-4.181-14.65-8.532-23.49-11.745-1.2-.437-2.47-0.83-3.77-1.194a58.313,58.313,0,0,1,9.69,6.364,100.88,100.88,0,0,0,13.72,9.569c1.86,0.709,3.79,1.384,5.81,2.009,10.78,3.328,17.58,2.682,21.88.76a17.876,17.876,0,0,1-4.6.608A31.719,31.719,0,0,1,1055.53,446.818Zm18.69-4.877a8.771,8.771,0,0,1-1.12.7l0.03,0.063c-0.08.035-.17,0.044-0.25,0.075a11.776,11.776,0,0,1-5.41,1.179,21.448,21.448,0,0,1-4.46-.513c-6.99-1.5-11.59-4.356-16.45-7.381a75.177,75.177,0,0,0-12.08-6.434,48.415,48.415,0,0,1,8.03,5.975c3.7,3.7,9.86,8.63,13.29,10.209,8.52,3.5,15.79,3.477,20.54-.252l0.04,0.053a11.873,11.873,0,0,0,2.12-3.3c1.52-3.54,1.17-7.321-.11-9.423C1078.03,437.044,1076.65,440.108,1074.22,441.941Zm-17.49-25.369a10.292,10.292,0,0,1-4.73-4.024,11.776,11.776,0,0,1-1.6-5.064,15.917,15.917,0,0,0,.28,9.229Q1053.77,416.742,1056.73,416.572ZM890.438,451.909a19.193,19.193,0,0,1,2.681-5.6c0.381-.545.808-1.061,1.244-1.571l-2.437-4.445A71.86,71.86,0,0,0,890.438,451.909Zm12.9-50.368c-3.282,5.059-3.363,12.136-2.345,17.074a31.619,31.619,0,0,0,6.733,13.975,17.943,17.943,0,0,1,4.122-3.763c-2.5-2.339-7.22-7.675-7.711-15.039-0.539-8.1,3.838-14.455,10.644-15.451,5.69-.831,12.273,3.227,13.61,11.438,0.8,4.887-.542,9.814-3.831,14.348a11.078,11.078,0,0,0,5.559-5.337,16.19,16.19,0,0,0-.147-14.482,18.955,18.955,0,0,0-10.06-9.119C913.139,393.617,906.952,395.967,903.337,401.541Zm32.275-2.613c4.512,1.552,9.358,1.082,11.8-1.136a4.105,4.105,0,0,0,1.472-3.031,6.847,6.847,0,0,0-1.261-3.68,5.839,5.839,0,0,1-.242,1.141,6.126,6.126,0,0,1-5.492,4.316c-0.364.026-.724,0.041-1.079,0.041a11.446,11.446,0,0,1-10.842-6.919,10.321,10.321,0,0,1-.149-7.982,9.309,9.309,0,0,1,5.54-5.2c7.886-2.961,14.938,2.456,20.934,7.751,5.139,4.544,9.7,7.062,14.713,8.11,0.117,0.025.744,0.094,1.161,0.144a31.469,31.469,0,0,1,10.428.869,29.024,29.024,0,0,0,4.033-.871,38.956,38.956,0,0,1,9.114-1.534c0.24-.011.479-0.016,0.713-0.016a18.6,18.6,0,0,1,8.517,2.107c0.66-.637,1.35-1.251,2.06-1.844a19.808,19.808,0,0,0-10.662-2.859,37.283,37.283,0,0,0-9.042,1.152,29.414,29.414,0,0,1-14.8.111c-6.878-1.466-10.977-5.068-14.94-8.551-3.942-3.46-7.664-6.73-13.9-7.9-5.866-1.1-11.185.187-14.583,3.531a12.175,12.175,0,0,0-3.259,11.071A14.2,14.2,0,0,0,935.612,398.928ZM842.2,445.621a13.32,13.32,0,0,1-2.537-7.27c-0.911,6.021,1.368,11.244,5.244,13.78a10.173,10.173,0,0,0,11.417-.026,7.6,7.6,0,0,0,2.983-7.424,7.983,7.983,0,0,1-5.594,3.94v0a13.794,13.794,0,0,1-4.079.665A8.941,8.941,0,0,1,842.2,445.621Zm49.855-28.163a22.1,22.1,0,0,1,2,13.367l0.007,0a49.7,49.7,0,0,0,4.9,9.849,26.928,26.928,0,0,1,3.854-2.176,44.6,44.6,0,0,1-7.535-21.892c-0.474-7.483,1.395-14.1,4.029-18.2a21.725,21.725,0,0,0-7.428,17.939C891.892,416.594,892,417.166,892.05,417.458Zm-32.572,4.749a31.069,31.069,0,0,1,18.317-1.08,20.649,20.649,0,0,0-9.85-3.37,27.381,27.381,0,0,0-25.04,12.252,23.8,23.8,0,0,0-1.571,2.893c-1.043,3.172-1.224,8.219,1.685,12.1a7.756,7.756,0,0,0,6.031,3.229,7.566,7.566,0,0,1-4.091-3.91,7.391,7.391,0,0,1-.56-4.227l-0.086-.014C845.567,431.925,851.1,425.411,859.478,422.207Zm142.542-24.675c-3.27,3.486-6.646,7.09-11.781,9.853-7.648,4.119-16.912,3.338-21.648,2.539,1.611,1,3.262,2.17,4.94,3.441a48.073,48.073,0,0,0,17.674-3.313c6.72-2.809,11.925-8.048,16.515-12.671l1.18-1.183c5.92-5.928,12.87-7.878,18.58-5.206a9.354,9.354,0,0,1,5.12,5.745,13.678,13.678,0,0,1-1.54,10.691,19.4,19.4,0,0,1-4.78,5.579c1.02,0.141,1.98.3,2.89,0.473,1.2-.75,9.37-6.271,7.95-16.355a12.184,12.184,0,0,0-5.61-8.684c-3.97-2.534-9.35-3.048-14.76-1.408C1009.92,389.1,1006.08,393.2,1002.02,397.532Zm45.74,6.631a28.2,28.2,0,0,1-10.17.041,17.021,17.021,0,0,1-1.79,3.93A50.107,50.107,0,0,0,1047.76,404.163Zm28.58,27.485a18.932,18.932,0,0,1-6.88,1.314c-3.76,0-7.6-1.141-12.01-3.11,1.68,1.278,3.27,2.538,4.21,3.316,3.14,2.594,6.35,3.943,8.7,3.674,0.07-.009,1.05-0.268,1.81-0.469,3.71-1.458,4.5-3.942,4.67-4.885l-0.06-.017C1076.59,431.548,1076.4,431.625,1076.34,431.648Zm-31.81-15.22c1.73,0.14,3.4.2,5.06,0.241a16.145,16.145,0,0,1-.46-8.051A69.561,69.561,0,0,1,1044.53,416.428Zm-8.93-1.489c1.07,0.275,2.14.545,3.17,0.842,1.57,0.235,3.08.372,4.59,0.516a69.723,69.723,0,0,0,6.25-11.062,85.42,85.42,0,0,1-7.13,5.974A25.414,25.414,0,0,1,1035.6,414.939Zm-0.59-5.63a20.856,20.856,0,0,1-4.45,4.464c1.04,0.216,2.08.436,3.08,0.674a22.8,22.8,0,0,0,8.22-4.061c2.5-1.9,4.62-3.662,6.44-5.35a51.192,51.192,0,0,1-12.65,4.172C1035.45,409.243,1035.2,409.281,1035.01,409.309ZM896.3,416.538a43.619,43.619,0,0,0,7.435,21.5l-0.242.165c0.644-.277,1.3-0.545,1.977-0.783a10.084,10.084,0,0,1,1.638-3.975,31.582,31.582,0,0,1-7.123-14.621c-1.061-5.137-.963-12.524,2.486-17.841a15.716,15.716,0,0,1,11.985-7.2,19.814,19.814,0,0,0-11.687,2.239C899.031,398.751,895.688,406.872,896.3,416.538Zm-12.124,26.293a37.732,37.732,0,0,1,2.085,8.474c0.648,3.965,1.188,7.118,3.462,8.094a48.678,48.678,0,0,1-.126-10.57c-0.127-1.944-.308-3.856-0.588-5.721-2.331-8.477-8.213-14.439-15.815-15.967-9.561-1.915-18.07.293-24.641,6.391-0.035.033-.272,0.266-0.575,0.567,3.066-2.558,7.689-3.912,13.174-3.809C872.928,430.579,880.89,434.916,884.175,442.831Zm-10.36,1.406c3.85,3.081,4.276,6.843,4.726,10.826,0.357,3.182.728,6.471,2.9,9.7,3.789,5.636,11.5,6.265,14.221,6.309a17.516,17.516,0,0,1-3.526-4.116l0,0.086c-4.566-.246-9.879-3.812-11.092-13.071-1.394-10.641-6.541-16.088-16.2-17.148-5.694-.627-11,0.425-12.9,2.553a2.486,2.486,0,0,0-.643,2.328,2.257,2.257,0,0,0,1.41,1.479,7.71,7.71,0,0,0,6.488-.736v0l0.061-.033C859.589,442.28,867.4,439.1,873.815,444.237Zm16.19-1.391c0.489-7.169,1.039-22.049-11.374-28.367-12.312-6.27-26.363-.241-32.326,5.031-5.79,5.113-10.177,14.107-10.435,21.388-0.194,5.5,1.245,10.031,4.163,13.095,2.657,2.792,6.476,4.3,11.04,4.366a9.658,9.658,0,0,0,8.72-4.376,9.3,9.3,0,0,0,.6-7.687,8.507,8.507,0,0,1-3.457,6.635,10.346,10.346,0,0,1-6.192,2,11.733,11.733,0,0,1-6.4-1.936c-5.38-3.515-7.933-11.777-3.981-20.429,0.005-.013.007-0.027,0.011-0.039l0.007,0a24.767,24.767,0,0,1,1.663-3.071,28.362,28.362,0,0,1,25.991-12.726c9.6,0.779,16.857,6.981,19.924,17.016a64.211,64.211,0,0,1,1.975,8.87C889.952,442.694,889.984,442.767,890.005,442.846Zm-41.85-10.293c6.709-6.049,15.619-8.352,25.242-6.42a21.025,21.025,0,0,1,14.471,11.279c-0.276-1.128-.559-2.252-0.9-3.364a24.209,24.209,0,0,0-6.86-11.15,29.723,29.723,0,0,0-20.262.27A23.115,23.115,0,0,0,848.155,432.553Zm49.953,8.706a50.546,50.546,0,0,1-4.445-8.567c-0.105.493-.169,0.978-0.3,1.477-0.418,1.56-.78,3.075-1.11,4.563l2.846,5.2A22.779,22.779,0,0,1,898.108,441.259Zm-8.216,19.261-0.017.061c-3.3-.916-3.914-4.714-4.631-9.111a37.089,37.089,0,0,0-2.02-8.246c-3.119-7.508-10.76-11.625-22.1-11.9-6.721-.151-12,1.938-14.51,5.771a6.918,6.918,0,0,0-.722,6.791,6.674,6.674,0,0,0,6.931,3.848,7.092,7.092,0,0,0,5.775-3.9,8.481,8.481,0,0,1-6.3.292,3.18,3.18,0,0,1-2-2.2,3.536,3.536,0,0,1,.878-3.241c2.139-2.4,7.679-3.571,13.781-2.89,10.064,1.1,15.66,7,17.106,18.038,1.076,8.215,5.508,11.581,9.517,12.086a16.2,16.2,0,0,1-1.536-4.4C889.98,461.2,889.946,460.851,889.892,460.52Zm50,7.855-0.6-.032c-0.045.022-.089,0.041-0.133,0.064,0.048,0,.087-0.013.135-0.015C939.5,468.38,939.691,468.38,939.89,468.375Zm5.946,51.35c5.017,4.47,11.205,5.485,15.788,5.485,0.146,0,.278-0.007.42-0.01a32.519,32.519,0,0,1-13.018-.317c-4.791-1.23-7.846-4.1-7.972-7.477a5.288,5.288,0,0,1,1.647-4.267,4.352,4.352,0,0,1,.742-0.494c-0.046.076-.113,0.128-0.153,0.208C942.529,514.4,942.8,517.013,945.836,519.725Zm12.819,1.764a9.585,9.585,0,0,0,3.35-10.091c-0.856-3.847-3.67-7.43-6.326-10.09,3.959,2.524,9.865,7.064,10.919,12.269a10.031,10.031,0,0,1-1.187,7.546,25.338,25.338,0,0,1-2.613,1.887A16.706,16.706,0,0,1,958.655,521.489Zm-54.842-16.762c0.395,0.016.792,0.034,1.173,0.034,7.47,0,12.5-2.774,16.971-5.239,0.862-.476,1.712-0.939,2.562-1.379-0.687.571-1.354,1.175-2.042,1.8a37.113,37.113,0,0,1-7.013,5.322,17.468,17.468,0,0,1-6.451,2.1c-0.213.012-.415,0.035-0.629,0.046l0,0.035a43.921,43.921,0,0,1-11.2-.754c-5.729-.9-10.667-1.661-12.423,2.787-1.683,4.261,1.473,8.889,5.3,11.788-3.4-1.229-8.168-3.789-9.049-8.669a8.622,8.622,0,0,1,2.381-7.962c2.148-1.988,5.295-2.561,8.866-1.619A42.256,42.256,0,0,0,903.813,504.727Zm42.5-7.948c-3.588-1.512-8.644-3.117-13-2.527-0.587.082-1.125,0.19-1.648,0.306v0c-0.063.008-.118,0.03-0.18,0.039l-0.112.025c-3.644.568-6.7,2.228-9.917,4a38.886,38.886,0,0,1-10.612,4.467,18.531,18.531,0,0,0,5.39-4.039c6.668-7.051,11.065-9.166,17.392-8.4a24.908,24.908,0,0,1,13.3,6.23C946.747,496.839,946.545,496.808,946.316,496.779Zm-39.277,15.186c-1.642-.181-3.188-0.4-4.564-0.624-3.947-.632-7.065-1.128-9.891.178a5.3,5.3,0,0,0-3.32,4.831,7.734,7.734,0,0,0,1,3.765c-3.295-2.666-5.954-6.691-4.547-10.255,1.458-3.684,5.807-3.008,11.308-2.146a43.321,43.321,0,0,0,11.95.686,40.38,40.38,0,0,0,18.012-5.13c1.03-.573,2.009-1.07,2.963-1.534C925.781,505.313,916.559,512.107,907.039,511.965Zm19.451-9.594a38.507,38.507,0,0,1-11.45,4.232c0.311-.152.628-0.267,0.935-0.442a37.924,37.924,0,0,0,7.195-5.456c2.525-2.3,4.587-4.177,8.465-5.091,0.031,0,.06-0.017.092-0.021,0.541-.125,1.114-0.233,1.732-0.319,3.108-.444,6.706.37,9.79,1.436C939.71,496.917,934.143,498.12,926.49,502.371ZM895.438,517c1.526-1.457,4.16-1.758,7.816-.883,1.7,0.407,3.3.745,4.823,1.014a12.657,12.657,0,0,0-4.085,2.1,11.466,11.466,0,0,1-6.682,2.48l0,0.028a19.624,19.624,0,0,0-3.363.423C893.846,521.1,893.8,518.563,895.438,517Zm5.73,4.977a14.082,14.082,0,0,0,3.416-1.9,11.3,11.3,0,0,1,7.318-2.424,21.165,21.165,0,0,0,7.834-.592A29.613,29.613,0,0,1,901.168,521.973Zm10.961-5.349v-0.016c-0.041,0-.074.005-0.115,0.006a60.244,60.244,0,0,1-8.521-1.5c-4.023-.958-6.976-0.572-8.772,1.146a7.087,7.087,0,0,0-1.835,5.47,7.237,7.237,0,0,1-2.59-5.354,4.244,4.244,0,0,1,2.719-3.917c2.541-1.18,5.52-.7,9.3-0.1,1.293,0.207,2.742.414,4.269,0.592l0,0.057c0.2,0.007.4,0.01,0.607,0.011a41.884,41.884,0,0,0,8.728.086,31.613,31.613,0,0,0,14.451-5.3l-0.909.937c-1.226,1.266-2.383,2.464-3.573,3.573C922.124,515.813,918.268,517.151,912.129,516.624ZM937.5,501.592l-0.033-.054c-1.043.627-2.151,1.455-3.435,2.413-4.118,3.077-9.756,7.288-18.213,8.126-0.858.085-1.648,0.093-2.457,0.121,10.326-2.656,18.828-11.03,19.6-11.808,6.626-2.723,11.019-2.812,13.117-2.586,1.545,0.659,2.791,1.283,3.554,1.687,0.129,0.141.272,0.285,0.4,0.424A13.569,13.569,0,0,0,937.5,501.592Zm30.111,11.782c-1.568-7.748-12.622-13.81-14.77-14.923-0.077-.04-0.251-0.128-0.427-0.216,5.217,1.272,17.007,4.934,18.443,12.339,0.665,3.419-1.3,6.5-3.485,8.755A11.933,11.933,0,0,0,967.606,513.374ZM949.84,486.585c1.96,0.171,4.836.2,6.779-.745,1.5-.736,2.137-2.044,1.612-3.339-0.9-2.231-4.832-3.632-10.348-1.838a18.822,18.822,0,0,0-6.07,3.406,22.505,22.505,0,0,1,12.549-6.96c3.172-.5,5.968-0.054,7.69,1.229a6.786,6.786,0,0,1,1.373,7.029,6.062,6.062,0,0,1-5.48,3.682A19.5,19.5,0,0,1,949.84,486.585Zm14.538-.827a7.831,7.831,0,0,0-1.6-8.159c-0.021-.023-0.052-0.041-0.073-0.065v0a0.06,0.06,0,0,1-.011-0.006c-3.413-3.665-11.195-5.283-18.455-1.655a30.37,30.37,0,0,0-10.791,8.6c4.378-10.135,15.769-14.9,22.315-13.779,5.225,0.871,9.377,3.964,10.837,8.074a7.913,7.913,0,0,1-1.467,8.1,6.328,6.328,0,0,1-3.081,1.813A6.685,6.685,0,0,0,964.378,485.758Zm-32.32-.658,0.089,0.033a17.041,17.041,0,0,0-3.014-.15,14.965,14.965,0,0,0-3.56.657,45.055,45.055,0,0,1,8.527-8.683c5.356-3.866,9.587-5.711,13.466-6.374A24.5,24.5,0,0,0,932.058,485.1Zm12.64-8.306a16.865,16.865,0,0,1,14-.764,15.151,15.151,0,0,0-4.5.061c-5.988.955-11.7,4.721-15.709,10.354l-0.354.5a20.51,20.51,0,0,0-4.119-1.5A29.185,29.185,0,0,1,944.7,476.794Zm-1.727,9.006a9.706,9.706,0,0,0-3.294,1.966l-0.083-.05a19.624,19.624,0,0,1,8.607-6.074c5.222-1.7,8.452-.3,9.076,1.245,0.313,0.776-.1,1.533-1.112,2.025-2.79,1.367-8.133.41-8.264,0.384h0A9.934,9.934,0,0,0,942.971,485.8Zm-16.945-6.051c11.7-11.816,23.45-16.038,33.977-12.2,9.7,3.536,12.856,11.649,10.956,17.84-1.531,4.976-6.7,9.093-14.782,7.061a12.611,12.611,0,0,1-6.56-4.816,20.552,20.552,0,0,0,8.277,2.436v0.022c0.035,0,.064-0.015.1-0.017,0.332,0.02.666,0.048,0.993,0.048,2.759,0,5.3-.745,6.917-2.574a8.915,8.915,0,0,0,1.665-9.127c-1.585-4.462-6.045-7.813-11.637-8.745-6.59-1.1-12.929-.421-22.434,6.445a46.941,46.941,0,0,0-9.448,9.838c-0.037.053-.233,0.263-0.316,0.354-3.744,1.672-6.571,4.627-9.138,7.359-0.972,1.037-1.917,2.03-2.875,2.932a11.589,11.589,0,0,1-6.632.6,8.358,8.358,0,0,0,1.834-2.584c1.4-.255,8.353-1.894,13.807-10.16,0.038-.057.168-0.238,0.277-0.39A40.6,40.6,0,0,0,926.026,479.749Zm-44.158,20.229a13.269,13.269,0,0,0-5.379,7.91,28.508,28.508,0,0,1-16.4-1.7l-2.19-1.163a20.172,20.172,0,0,0,8.023,1.762,17.427,17.427,0,0,0,4.037-.473c6.022-1.441,9.529-6,12.624-10.026a29.5,29.5,0,0,1,5.052-5.587c2.24-1.7,4.507-2.314,6.2-1.71a3.835,3.835,0,0,1,2.388,2.872,8.976,8.976,0,0,1-.511,5.349,4.406,4.406,0,0,0-2.771-3.856,4.33,4.33,0,0,0-5,1.716,15.3,15.3,0,0,1-3.51,3.539A13.69,13.69,0,0,0,881.868,499.978Zm-5.79,11.516A24.316,24.316,0,0,1,861.949,508a29.516,29.516,0,0,0,9.133,1.436,29.86,29.86,0,0,0,5.193-.485A15.148,15.148,0,0,0,876.078,511.494Zm-6.728-9.184,0.026,0.058c0.16-.072.293-0.168,0.445-0.247a21.035,21.035,0,0,0,3.055-1.677c4.037-2.671,5.963-5.6,7.828-8.433a27.475,27.475,0,0,1,4.32-5.471c3.19-2.945,7.347-4.01,10.852-2.784a6.857,6.857,0,0,1,4.7,5.53,8.544,8.544,0,0,1-4.012,8.616,10.123,10.123,0,0,0,.668-6.281,4.843,4.843,0,0,0-3.045-3.6c-2.061-.735-4.607-0.073-7.167,1.858a30.3,30.3,0,0,0-5.249,5.781c-3.137,4.079-6.379,8.3-12.049,9.652a18.588,18.588,0,0,1-12.466-1.733,23.19,23.19,0,0,0,3.941.343A21.245,21.245,0,0,0,869.35,502.31Zm36.774-8.353a7.491,7.491,0,0,1-.816,1.417,13.75,13.75,0,0,0-8.42-12.362l-0.02.046c-0.215-.095-0.424-0.2-0.651-0.275-3.864-1.349-8.422-.2-11.893,3a28.721,28.721,0,0,0-4.482,5.662,26.582,26.582,0,0,1-6.247,7.217,32.029,32.029,0,0,0,2.788-5.644c1.561-3.758,3.175-7.64,6.947-10.679a15.162,15.162,0,0,1,14.583-2.953,13.676,13.676,0,0,1,8.981,9.25A10.67,10.67,0,0,1,906.124,493.957Zm-9.107,4.854a9.652,9.652,0,0,0,4.573-9.682,8.131,8.131,0,0,0-.56-1.956,12.9,12.9,0,0,1,3.241,9.358l0.018,0C902.043,498.557,898.9,498.85,897.017,498.811Zm-36.257,9.67v0.21a6.385,6.385,0,0,1-4.2,6.2,18.464,18.464,0,0,0-.478-9.866A34.769,34.769,0,0,0,860.76,508.481Zm1.023,0.589a28.923,28.923,0,0,0,4.929,2.213,1.4,1.4,0,0,1-.3,1.132c-1.173,1.5-5.03,2.253-7.954,2.579A7.006,7.006,0,0,0,861.783,509.07Zm27.006-13.4a3.308,3.308,0,0,1,3.807-1.342c1.484,0.538,2.276,2.069,2.12,4.1l0.006,0.015a14.49,14.49,0,0,0-7.781-.607A16.323,16.323,0,0,0,888.789,495.667Zm15.3,2.318a8.476,8.476,0,0,0,3.071.5,13.549,13.549,0,0,0,2.7-.3c-0.154.115-.3,0.246-0.459,0.354-2.765,1.9-6.561,2.3-10.712,1.233A11.367,11.367,0,0,0,904.085,497.985Zm14.483-12.3a21.58,21.58,0,0,1-11.192,7.778,11.706,11.706,0,0,0,.617-4.245C908.516,489.223,912.767,489.169,918.568,485.686Zm-34.157-8.537c8.9-2.7,15.762.462,19.233,4.335,0.1,0.115.183,0.24,0.281,0.357a15.606,15.606,0,0,0-5.681-3.428,16.194,16.194,0,0,0-15.562,3.123c-3.973,3.2-5.715,7.392-7.25,11.088-1.5,3.614-2.834,6.748-5.826,8.442a20.5,20.5,0,0,1-10.67,1.708c8.584-.689,11.5-6.855,12.494-11.042h0C871.456,491.619,874.327,480.225,884.411,477.149ZM834.557,507.12c-3.537-2.12-4.988-6.159-3.452-9.6,1.173-2.634,4.126-4.865,9.164-4.865a24.181,24.181,0,0,1,7.082,1.193c6.771,2.089,14.779,3.674,19.815,1.783-3.749,3.158-8.666,3.716-15.52,1.761l-0.431-.123c-5.068-1.453-9.434-2.709-13.326-1.8a5.164,5.164,0,0,0-4.172,3.764,5.675,5.675,0,0,0,2.172,5.547c2.639,2.114,6.436,2.64,8.637,2.764A9.84,9.84,0,0,1,834.557,507.12Zm9.163-.676c-2.11-.207-5.1-0.8-7.187-2.467a4.631,4.631,0,0,1-1.81-4.514,4.123,4.123,0,0,1,3.4-2.989,15.333,15.333,0,0,1,6.388.141,7.184,7.184,0,0,0-3.314,1.118,3.7,3.7,0,0,0-1.59,2.716C839.309,503.316,841.748,505.312,843.72,506.444Zm0.655-3a2.841,2.841,0,0,0,.029,2.195c-1.767-.984-4.017-2.715-3.768-5.08a2.66,2.66,0,0,1,1.162-1.985c1.8-1.287,5.407-1.221,8.18-.585h0l0.954,0.271,0.43,0.123c7.853,2.243,13.507,1.26,17.631-3.04-2.2,4.115-6.93,8-17.148,5.858C847.4,500.267,845.044,501.824,844.375,503.443Zm21.426,12.37a18.457,18.457,0,0,1-7.334.218c2.877-.309,7.276-1.081,8.761-2.981a2.413,2.413,0,0,0,.49-1.438,23.722,23.722,0,0,0,6.715.995l0.034,0A34.513,34.513,0,0,1,865.8,515.813Zm15.477,4.075a10.353,10.353,0,0,1-4.178-7.92,12.366,12.366,0,0,1,7.819-12.447l0,0.006,0.027-.018a13.314,13.314,0,0,1,10.167.162c3.344,1.412,9.723,3.256,14.858-.284a35.21,35.21,0,0,0,5.376-5.007c3.71-3.952,7.548-8.038,13.835-8.369,0.284-.015.563-0.022,0.845-0.022,7.651,0,13.957,5.491,18.2,10.657a26.279,26.279,0,0,0-14.479-7.027c-6.717-.828-11.327,1.382-18.262,8.717a15.582,15.582,0,0,1-11.838,5.352c-0.1,0-.182,0-0.28,0v0.019a42.231,42.231,0,0,1-10.843-1.682c-3.933-1.036-7.414-.374-9.83,1.857a9.648,9.648,0,0,0-2.692,8.9c1.083,6,7.18,8.725,10.775,9.83A14.271,14.271,0,0,1,881.278,519.888Zm35.714,7.721a15.161,15.161,0,0,1-11.218-3.036c-0.571-.377-1.137-0.749-1.724-1.094a56.772,56.772,0,0,0,6.38.384,33.064,33.064,0,0,0,9-1.109,25.567,25.567,0,0,0,12.388-7.828C929.2,521.089,925.217,526.9,916.992,527.609Zm24.107-23.8a14.291,14.291,0,0,0-7.629,7.163,24.52,24.52,0,0,1-14.325,10.79,35.416,35.416,0,0,1-11.223,1c8.453-1.361,15.057-6.345,18.661-9.7,1.211-1.127,2.432-2.39,3.613-3.611,5.852-6.055,11.911-12.3,21.252-7.832,0.787,1,1.413,1.891,1.857,2.572A16.644,16.644,0,0,0,941.1,503.812Zm15.395,14.879c2.054-1.453,1.491-7.411-1.285-13.561a47.207,47.207,0,0,0-2.936-5.527c2.978,2.516,7.633,7.107,8.724,12.018,1.287,5.783-2.28,8.628-3.315,9.318a12.967,12.967,0,0,1-2.343-1.932A1.807,1.807,0,0,0,956.494,518.691Zm-4.212-1.756c0.164,0.216.336,0.432,0.5,0.649l-0.011.011c0.02,0.019.038,0.031,0.058,0.05A16.385,16.385,0,0,0,957.4,522a17.343,17.343,0,0,0,5.815,2.143c-4.465.236-11.3-.379-16.688-5.186-2.613-2.326-2.875-4.493-2.307-5.643a2.352,2.352,0,0,1,2.709-1.134C949.409,513.158,950.808,514.991,952.282,516.935Zm-13.244,6.325c-2.714-3.6-2.044-7.051-.508-9.079a6.5,6.5,0,0,1,4.543-2.519,5.245,5.245,0,0,0-1.046.7,6.308,6.308,0,0,0-2,5.083c0.144,3.854,3.5,7.089,8.748,8.438a29.542,29.542,0,0,0,7.316.873,36.221,36.221,0,0,0,5.538-.432C954.09,528.848,943.744,529.505,939.038,523.26Zm28.749,0.205a17.8,17.8,0,0,1-3.555-.192c2.411-1.579,8.88-6.469,7.633-12.9-1.331-6.867-10.377-10.63-16.389-12.4,7.2,0.707,19.184,3.23,21.02,12.2C978.043,517.726,968.659,523,967.787,523.465Z" transform="translate(-669 -305.281)"/>
  <path id="mark" class="cls-1" d="M963.665,370.1c-3.925-10.87-15.132-17.769-27.18-17.769h-0.01c-3.721-10.317-14.476-17.782-27.18-17.782s-23.458,7.465-27.179,17.782h-0.01c-12.049,0-23.256,6.9-27.18,17.769s0.634,22.4,10.39,28.768c-3.724,10.313.1,22.037,10.377,28.756a31.184,31.184,0,0,0,33.6-.008,31.184,31.184,0,0,0,33.6.008c10.276-6.719,14.1-18.443,10.378-28.756C963.03,392.5,967.591,380.98,963.665,370.1Zm-13.1,24.62-3.282,2.144,1.331,3.687a18.741,18.741,0,0,1-3.643,18.72,3.02,3.02,0,0,0-1.364-.717,12.846,12.846,0,0,1-2.044-.852c-0.062-.032-0.268-0.107-0.474-0.179-0.164-.057-0.329-0.112-0.386-0.139l-0.142-.073-0.148.058a1.281,1.281,0,0,1-.616.121h-0.115l-0.092.065c-0.382.274-.535,0.283-2.486,0.313l-3.374.032a2.064,2.064,0,0,1,.11-0.389,11.958,11.958,0,0,1,2.257-.236c0.138-.014.509-0.069,0.906-0.13,0.463-.069.963-0.144,1.161-0.162l0.147-.02a2.481,2.481,0,0,0,1.635-.639l0.089-.074,0.023-.111a1.966,1.966,0,0,0-.3-1.053l-0.051-.1a5.579,5.579,0,0,0-1.777-1.007l-1.009-.457-0.123.031a2.072,2.072,0,0,1-.694.076H936l-0.189.118a0.921,0.921,0,0,0-.515.156c-0.1.026-.878,0.183-0.99,0.192h-0.018c-0.022-.064-0.047-0.151-0.065-0.211a0.964,0.964,0,0,0-.3-0.59c-0.019-.015-0.067-0.044-0.12-0.075-0.021-.011-0.045-0.022-0.064-0.033l-0.185-.2c0.938-.133,2.837-0.287,3.44-0.317,0.039,0.046.087,0.1,0.138,0.158a12.554,12.554,0,0,0,1.105,1.183,3.343,3.343,0,0,0,2.42.655,5.314,5.314,0,0,0,1.48-.506,1.528,1.528,0,0,0,.806-1.416,0.97,0.97,0,0,0-.066-0.278c-0.042-.14-0.152-0.515-0.16-0.593l0.033-.195-0.208-.086-0.055-.076a14.053,14.053,0,0,0-4.169-3.023c-0.418-.159-0.734-0.278-0.979-0.373l1.845-.243c1.927-.112,2.355-0.448,2.584-1.159l0.033-.1-0.033-.1a3.519,3.519,0,0,0-2.069-1.84l-0.5-.128c-0.811-.207-1.318-0.337-1.753-0.416,0.323,0.017.607,0.028,0.778,0.028,0.148,0,1.416-.208,1.551-0.255a1.317,1.317,0,0,0,.808-1.2,1.384,1.384,0,0,0-.135-0.615l-0.027-.065,0.18-.181a9.567,9.567,0,0,1,.855-0.966l0.089-.09a1.312,1.312,0,0,1,.34-0.266l0.55,0.065,0.119-.131a2.317,2.317,0,0,0,.532-0.941c0-.7-1.143-1.471-1.369-1.592l-0.622-.335c-1.447-.777-1.67-0.9-1.815-0.983a5.357,5.357,0,0,0-2.363-.814,2.7,2.7,0,0,0-2.1.87,1,1,0,0,1-.89.146c-0.243,0-1.155.065-2.016,0.131l-4.643.245-2.816.091-2.382.172-2.3.117h-1.792c-0.072,0-.244-0.03-0.434-0.061a6.481,6.481,0,0,0-.714-0.089,2.408,2.408,0,0,0-.905-0.288,1.267,1.267,0,0,0-.338.058h-0.38l0.048,0.439-0.084.024v0.245a3.726,3.726,0,0,0,.458,1.179c0.026,0.052.047,0.1,0.063,0.13l0.063,0.126a3.351,3.351,0,0,0,.979.653c0.379,0.195.379,0.2,0.379,1.16a18.221,18.221,0,0,1-.661,3.66l-0.634,2.368-0.936,3.172c-0.024.084-.208,0.471-0.307,0.68-0.073.156-.137,0.292-0.174,0.381-0.142.442-.622,1.679-0.8,2.046l-1.2,2.407-0.043.216c-0.066.15-.541,1.039-0.647,1.2-0.544.847-.929,1.4-1.3,1.892-0.029.029-.1,0.081-0.175,0.148a1.534,1.534,0,0,0-.775.917c0,0.56,1.281.658,1.391,0.669l0.4-.083c0.558-.115.676-0.141,0.7-0.153A8.915,8.915,0,0,0,916.3,417.6a33.589,33.589,0,0,0,2.973-4.586l0.339-.76a11.266,11.266,0,0,0,1.086.66c0.088,0.046.393,0.274,0.614,0.441,0.3,0.224.506,0.376,0.636,0.455a4.518,4.518,0,0,0,1.977.971,3.166,3.166,0,0,0,1.29-.586,5.656,5.656,0,0,0,.594-0.236c0.038-.011.141-0.029,0.266-0.053,0.363-.068.568-0.11,0.687-0.146,0.111-.013.294-0.046,0.485-0.081a5.193,5.193,0,0,1,.525-0.088,1.082,1.082,0,0,1,.169,0c0.057,0.622.085,1.085,0.086,1.149a0.177,0.177,0,0,1-.011.063c-0.826.144-4.029,0.445-4.326,0.45l-3.451.092-0.038.11h-1.044l0.8,0.627-0.084.089,0.7,0.692,0.1,0.023c0.248,0.058,1.33.427,1.91,0.626,0.273,0.093.478,0.163,0.567,0.188a14.975,14.975,0,0,0,4.328.443c0.087,0,.351-0.028.573-0.053l-0.042.1-5.084.286c-0.144.014-.542,0.08-0.959,0.15-0.446.074-.917,0.153-1.061,0.167s-0.628.029-1.038,0.054c-0.289.018-.543,0.034-0.618,0.034l-3.137.115-0.307.081-0.016.193-0.118.061v0.2a0.889,0.889,0,0,0,.632.873,20.709,20.709,0,0,0,5.462,1.778,7.888,7.888,0,0,0,1.385-.3c0.242-.064.451-0.121,0.534-0.137l3.889-.575,2.576-.151c0.217-.023,2.906-0.054,3.228-0.054,0.069,0,.229.023,0.389,0.043,0.2,0.024.39,0.047,0.467,0.047l2.731,0.027a19.5,19.5,0,0,1,2.306.253l0.191,0.05c0.209,0.056.5,0.134,0.612,0.155l2.173,0.413a23.325,23.325,0,0,1-2.055,1.531,25.576,25.576,0,0,1-14.046,4.1,26.057,26.057,0,0,1-14.132-4.109L909.3,421.7l-2.713,1.775a26.051,26.051,0,0,1-14.131,4.109,25.58,25.58,0,0,1-14.047-4.1c-8.084-5.286-11.471-14.5-8.428-22.928l1.331-3.686-3.282-2.144A21.219,21.219,0,0,1,860,385.336c0.275,0.024.553,0.037,0.818,0.037a14.41,14.41,0,0,0,2.752-.258l3.2-.8a20.159,20.159,0,0,0,2.477-1.093l0.088-.025c0.533-.157.774-0.211,0.862-0.232,0,0.091-.008.209-0.013,0.3l-0.005.214,0.2,2.126c0,0.079-.012.284-0.022,0.476s-0.016.359-.016,0.42c0,1.4.559,1.93,2.717,3.759a14.3,14.3,0,0,0,1.774.752,2.927,2.927,0,0,0,1.469-.591,1.371,1.371,0,0,1,1.191-.4,5.894,5.894,0,0,0,.752-0.131,8.125,8.125,0,0,1,.818-0.107,3.111,3.111,0,0,0,.318-0.038l4.936-.277,3.1,0.029a4.73,4.73,0,0,1,1.641.253l0.171,0.044,0.1,0.012c0.051,0,.193-0.01.311-0.02l0.106-.009c0.035,0,.173.016,0.33,0.033,0.269,0.027.593,0.059,0.642,0.059,0.331,0,1.95-.413,1.95-1.52a1.517,1.517,0,0,0-.159-0.623v0a13.918,13.918,0,0,0-1.123-1.249l-0.063-.067-0.3-.1c-0.018,0-.035-0.012-0.051-0.016a9.9,9.9,0,0,1,2.382-2.283c1.38-.517,2.138-0.8,2.138-2.018a1.55,1.55,0,0,0-.36-0.9L895,380.9l-0.115-.116c-0.09-.055-0.367-0.216-0.671-0.389-0.371-.213-0.781-0.448-0.911-0.533l-0.121-.049a1.043,1.043,0,0,1-.434-0.167c-0.274-.179-0.656-0.384-1.028-0.584-0.331-.178-0.654-0.352-0.884-0.5a6.1,6.1,0,0,0-2.661-.978,6.856,6.856,0,0,0-.891.136l-0.262.18c-0.145.127-.233,0.2-0.349,0.319l-0.043-.012-0.127.062a3.51,3.51,0,0,1-1.317.212l-3.516.369-6.215.762c0.031-.03.065-0.06,0.1-0.093,0.082-.077.152-0.144,0.167-0.157l1.266-.83c0.1-.066.33-0.254,0.592-0.47a10.09,10.09,0,0,1,1.03-.791l2.453-2.028c0.11-.086.406-0.323,0.721-0.575,0.366-.292.757-0.6,0.909-0.721l3.1-2.445c0.064-.039.208-0.122,0.379-0.219,0.482-.274.861-0.493,1-0.6,0.092-.066.57-0.278,0.886-0.418a7.626,7.626,0,0,0,.781-0.369,8.983,8.983,0,0,1,1.6-.063c1.674,0,2.586-.962,2.586-1.457a6.376,6.376,0,0,0-1.379-2.18,2.934,2.934,0,0,0-1.018-.581c-0.13-.058-0.238-0.105-0.291-0.135l-2.577-1.388-1.249-.166-0.222-.036-0.122.186a0.815,0.815,0,0,0-.1.11,1.144,1.144,0,0,1-.436.11l-0.231.028-0.049.153a1.562,1.562,0,0,0-.247.057,2.234,2.234,0,0,0-.519.294,20.5,20.5,0,0,1-2.657.349c-0.038-.023-0.17-0.152-0.255-0.233a1.77,1.77,0,0,0-.451-0.3,1.733,1.733,0,0,0-.184-0.1l-0.478-.559a14.605,14.605,0,0,0-3.4-1.57h0a1.846,1.846,0,0,1-1.248-.389l-0.131-.1-2.165.393-0.084.1a0.472,0.472,0,0,0,.059.706l0.079,0.108h0.156a2.085,2.085,0,0,1,.314.107c0.08,0.063.329,0.242,0.586,0.427,0.1,0.072.2,0.147,0.3,0.213a33.8,33.8,0,0,1-5.854,4.112l-2.782,1.3a20.491,20.491,0,0,1-3.3,1.084l-0.142.037-0.248.391,0.182,0.448,0.217,0.024c0.088,0.011.294,0.043,0.542,0.081,0.727,0.114,1.3.2,1.525,0.2,0.145,0,.544-0.031.944-0.063,0.374-.03.749-0.06,0.885-0.06,0.044,0,.044,0,0.809-0.126,0.478-.079,1.1-0.183,1.6-0.261l-0.092.42,0.513-.068A3.342,3.342,0,0,1,871.6,372.5l0.073,0.059h0c0.074,0.058.351,0.335,0.679,0.659,0.535,0.531.976,0.963,1.226,1.184a0.511,0.511,0,0,0,.086.2c-0.11.094-.249,0.2-0.361,0.282l-2.36,1.987-1.561,1.025-2.6,1.865-4.3,2.628c-0.115.076-.594,0.292-0.981,0.465a10.553,10.553,0,0,0-1.079.52,3.007,3.007,0,0,1-.976.484,18.293,18.293,0,0,1,.141-12.074c3.13-8.671,12.181-14.5,22.53-14.5h3.48l1.181-3.274c3.129-8.678,12.178-14.508,22.518-14.508s19.39,5.83,22.519,14.508L933,357.29h3.481c10.339,0,19.389,5.826,22.52,14.5C962.049,380.22,958.658,389.438,950.566,394.724Zm-23.99,10.818h-0.522l-3.6.375-0.765.021c0-.006,0-0.011,0-0.017l0.07-.52a0.926,0.926,0,0,1,.127-0.45,8.947,8.947,0,0,0,1.25.142,1.515,1.515,0,0,0,.506-0.158l0.2-.081,0.2-.035c0.82-.147,1.076-0.2,1.178-0.224l3.3-.321c1.309-.177,1.635-0.2,1.714-0.2,0.143,0,.575-0.019,1.03-0.039,0.491-.023,1.011-0.047,1.209-0.047l3.17,0.072c-0.072.017-.152,0.039-0.255,0.073l-0.116.039-0.064.1a0.508,0.508,0,0,1-.252.205l-0.12.112c-0.169.263-.183,0.284-1.464,0.4-0.26.027-3.713,0.319-4.06,0.345Zm2.013,5.157-0.144.132,0.135-.157Zm-4.164-1.789a9,9,0,0,1-1.889,2.052,8.686,8.686,0,0,1-2.307.235,0.962,0.962,0,0,1-.143-0.006l0.278-.625a18.3,18.3,0,0,0,.5-2,1.846,1.846,0,0,1,.18-0.684,14.226,14.226,0,0,0,2.539.835C924.047,408.816,924.265,408.867,924.425,408.91Zm-2.074-7.71a6.229,6.229,0,0,0-.268-0.7c0.3-.05.775-0.088,1.939-0.166l6.177-.437,3.687-.378a3.957,3.957,0,0,1,1,.038,8.153,8.153,0,0,1-.269,1.276,0.592,0.592,0,0,0-.321.138l-0.52-.045-0.089-.032-0.109.086a0.4,0.4,0,0,1-.075,0,3.959,3.959,0,0,0-.618.086H931.4c-0.024,0-2.909.159-3.058,0.206l-3.13.287-2.973.193a1.533,1.533,0,0,0,.128-0.474Zm6.452,9.22a4.821,4.821,0,0,0,.429-0.6c0.118-.18.3-0.45,0.352-0.506l0.174-.17-0.186-.344c1.026-.118,3.35-0.367,4.058-0.379a2.159,2.159,0,0,0,.849.8c0.1,0.127.278,0.332,0.5,0.585h-0.226c-0.093,0-.34.02-0.6,0.041s-0.522.046-.634,0.046a46.9,46.9,0,0,0-4.863.684l-0.017-.014C928.688,410.522,928.739,410.475,928.8,410.42Zm-54.658-40.29c0.259-.072.48-0.134,0.57-0.163l0.111-.058c0.113-.079.753-0.358,1.026-0.478l0.3-.131a15.609,15.609,0,0,0,2.093-1.213,1.968,1.968,0,0,1,.55-0.177,2.74,2.74,0,0,0,.832-0.288c0.091-.021.209-0.062,0.393-0.124,0.132-.046.263-0.094,0.3-0.1a0.974,0.974,0,0,1,.325.055c0.06,0.017.174,0.072,0.286,0.122a3.246,3.246,0,0,0,.37.151c0.569,0.142.877,0.221,1.06,0.284l-3.772,2.758a1.37,1.37,0,0,0-.381.3c-0.029.028-.055,0.055-0.078,0.074s-0.044.024-.068,0.037-0.091.051-.14,0.072l-0.05-.156-0.179-.055c-0.239-.076-1.032-0.286-1.721-0.469-0.449-.119-0.853-0.227-1.057-0.284C874.622,370.225,874.368,370.174,874.145,370.13Zm1.961,12.453c-0.015-.039-0.032-0.078-0.046-0.112h0.024l0.1,0a0.689,0.689,0,0,0,.242-0.057,0.145,0.145,0,0,0,.071-0.036c0.053,0,.154.022,0.254,0.041a2.336,2.336,0,0,0,.461.046c0.2-.041,2.75-0.4,3.177-0.4,0.013,0,.24-0.025.561-0.066,0.568-.07,1.9-0.237,2.062-0.24s0.42,0.016.672,0.032,0.5,0.029.637,0.029c0.092,0,.37-0.036.628-0.072,0.18-.024.347-0.049,0.382-0.052l0.409,0.023-0.544,2.518c-0.043.149-.488,1.12-0.653,1.449a9.427,9.427,0,0,1-1.72.061l-3.614.248c-0.148.012-.484,0.052-0.872,0.1-0.587.071-1.38,0.168-1.658,0.183l-0.374-2.814-0.073-.18a0.542,0.542,0,0,0,.038-0.179A1.57,1.57,0,0,0,876.106,382.583Zm78.343-16.705-0.07-.124a2.168,2.168,0,0,0-.395-0.543,3.51,3.51,0,0,0-.65-0.424c-0.167-.1-0.323-0.186-0.413-0.253s-0.322-.165-0.584-0.285a7.567,7.567,0,0,1-.8-0.4,4.133,4.133,0,0,0-2.066-.615,1.324,1.324,0,0,0-.872.38l-0.194.141a1.6,1.6,0,0,1-.952.341l-3.612.267-3.56.384c-0.054,0-.191-0.015-0.328-0.028-0.169-.017-0.338-0.032-0.4-0.032a8.978,8.978,0,0,0-1.763.184l-0.265.123,0.08,0.272a1.721,1.721,0,0,0,1.034.964,5.5,5.5,0,0,1,.714,2.179v2.313a3.17,3.17,0,0,1-.424,1.309l-0.075.151,0.08,0.148c0.557,1.039,2,2.379,2.764,2.379a3.939,3.939,0,0,0,1.32-.606l0.081-.061c0.176-.175.289-0.2,2.051-0.494,0.18-.022,2.323-0.122,2.869-0.14a1.621,1.621,0,0,0-.01.224c0,0.1-.018.4-0.037,0.692-0.019.313-.038,0.626-0.038,0.726l-0.067,3.517-3.623-1.639-3.273-1.738c-0.09-.057-0.388-0.2-0.706-0.36-0.274-.134-0.634-0.312-0.78-0.389-0.041-.112-0.1-0.305-0.138-0.427l-0.027-.082a2.2,2.2,0,0,0-.473-0.652c-0.125-.148-0.316-0.371-0.347-0.428l-0.052-.086a4.34,4.34,0,0,0-1.8-1.073,1.069,1.069,0,0,0-.453.108,0.609,0.609,0,0,0-.182.175c0.009-.046.019-0.093,0.027-0.141,0.019-.14.039-0.578,0.059-1.019,0.019-.408.036-0.82,0.055-0.987l0.193-2.232a1.123,1.123,0,0,1,1.02-.937l0.282-.113V366.1l-0.14-.1a11.947,11.947,0,0,0-4.348-1.94,3.5,3.5,0,0,0-1.189.466c-0.189.093-.35,0.175-0.363,0.188l-3.539.208-3.659.359c-0.113.021-.715,0.007-0.973,0l-0.31-.005c-0.154,0-.284.006-0.413,0.012a14.377,14.377,0,0,1-1.382-1.171,5.537,5.537,0,0,0-.459-0.323,5.5,5.5,0,0,1-.5-0.347l-6.115-4.968-2.441-2.24a1.94,1.94,0,0,1-.709-0.668l-0.063-.046c0.023-.067.046-0.132,0.068-0.2,0.014-.046.019-0.1,0.03-0.144,0.15-.027.288-0.055,0.288-0.055,0.3-.016.573-0.017,1.154-0.018l4.131-.017c0.047,0,.223-0.011.416-0.029,0.173-.016.366-0.037,0.5-0.037a18.681,18.681,0,0,1,2.539-.084l3.076,0.131a4.02,4.02,0,0,0,1.7-.41l0.123,0.065,0.218-.143a2.467,2.467,0,0,0,.851-1.281,3.176,3.176,0,0,0-.41-1.683l-0.077-.1a4.788,4.788,0,0,0-1.451-.88l-3.612-.86c-0.06-.007-0.192-0.04-0.3-0.066a1.5,1.5,0,0,0-.293-0.057c-0.183-.008-0.893.041-1.321,0.079l-0.224.075-0.109.123a1.355,1.355,0,0,1-1.044.511l-0.486.092a35.98,35.98,0,0,1-3.833.539c-0.058.007-.126,0.014-0.2,0.02,0,0-.353.011-0.753,0.036,0.009-.068.017-0.129,0.026-0.2,0.041-.309.082-0.631,0.085-0.746a1.156,1.156,0,0,1,.66-0.8l0.121-.041a1.868,1.868,0,0,0,.7-1.191c0.021-.708-0.883-1.261-2.767-2.346a2.714,2.714,0,0,1-.981-0.954l-0.062-.081-0.213-.067a1.965,1.965,0,0,0-.268-0.19,4.041,4.041,0,0,0-.939-0.3c-0.168-.045-0.314-0.083-0.333-0.083h0a3.165,3.165,0,0,0-1.617-.4,1.477,1.477,0,0,0-.877.233l-0.113.054a3.148,3.148,0,0,1-1.635.391,1.186,1.186,0,0,0-.5-0.164,0.57,0.57,0,0,0-.193.024l-0.993-.031,0.752,0.638c0.126,0.107.764,0.763,1,1l0.159,0.1c0.63,0.416.987,0.666,1.059,0.738l0.126,0.087c0.051,0.022.362,0.148,0.543,0.232,0.018,0.136.04,0.35,0.061,0.548,0.024,0.229.046,0.439,0.059,0.509,0.016,0.139,0,1.193-.042,2.563-0.01.351-.018,0.658-0.035,0.968l-0.146,0-0.409.1-0.42.009c-0.658.016-1.585,0.037-1.83,0.054l-6.353.447-2.746-.087-1.416.032-0.123-.061-1.051-.083,0.36,0.588a2.249,2.249,0,0,0,.687.721c0.1,0.076.5,0.32,0.8,0.5l3.1,2.062,0.042,0,0.152,0.073a9.883,9.883,0,0,0,2.7,1.008l0.565-.127c0.306-.082.693-0.184,0.978-0.255a17.487,17.487,0,0,1,2.854-.556,6.615,6.615,0,0,1,1.068-.12c0.037,0,.093-0.01.134-0.011-0.006.018-.01,0.039-0.018,0.057-0.105.259-.1,0.487-0.206,0.746a5.9,5.9,0,0,1-.392.7c-0.006.025-.014,0.05-0.022,0.075a3.607,3.607,0,0,1-.108.351L902.5,360.3l-1.731,2.771-2.136,2.686a4.265,4.265,0,0,1-.913.893,10.816,10.816,0,0,0-1.315.967l-1.752,1.541a15.492,15.492,0,0,1-1.562,1.052c-0.068.03-.247,0.084-0.449,0.145a5.513,5.513,0,0,0-.9.319l-0.19.114L891.576,371l-0.214.454,0.429,0.1a6.679,6.679,0,0,0,2.783.007,16.2,16.2,0,0,0,1.866-.443,9.512,9.512,0,0,0,.884-0.353c0.2-.084.37-0.159,0.444-0.187a12.945,12.945,0,0,0,3.865-1.95l0.068,0.085a2.791,2.791,0,0,1,.323.782l1.677,3.2a6.178,6.178,0,0,0,.773,1.169c0.056,0.043.229,0.164,0.406,0.286s0.328,0.223.342,0.226a3.591,3.591,0,0,0,1.714.907,4.949,4.949,0,0,0,1.731-.223,1.063,1.063,0,0,0,.825-0.967,1.666,1.666,0,0,1,.092-0.14,1.2,1.2,0,0,0,.224-0.417,4.074,4.074,0,0,0-.313-1.752,5.217,5.217,0,0,0-1.062-1.922l-0.123-.08c-0.134-.052-0.454-0.207-0.8-0.373-0.457-.221-0.93-0.449-1.146-0.529-0.158-.054-0.682-0.321-1.144-0.555-0.423-.216-0.765-0.389-1.022-0.509,0,0-.7-0.206-1.15-0.375l0.065-.058c0.042-.037.163-0.128,0.3-0.233a5.034,5.034,0,0,0,.682-0.559c0.694-.765.978-1.068,1.161-1.231a1.184,1.184,0,0,1,.339-0.485,2.057,2.057,0,0,0,.5-0.521,2.03,2.03,0,0,1,.463-0.607,0.616,0.616,0,0,0,.216-0.358c0.065-.094.142-0.2,0.226-0.326a19.663,19.663,0,0,0,1.814-2.891l0.014-.049c0.027,0.022.188-.462,0.209-0.445a3.294,3.294,0,0,1,.261-0.483l0.04,0.062a1.724,1.724,0,0,0,.274.243,1.525,1.525,0,0,1,.637.63l0.083,0.122a9.123,9.123,0,0,0,1.24,1.439l1.59,1.909c0.147,0.2.8,1.084,0.95,1.288,0.332,0.438,1.709,1.832,2.716,2.844l2.065,2.181,0.3,0.268,0.087,0.059a4.187,4.187,0,0,1,.856.528l0.077,0.054s1.4-.088,2.806-0.079l0.137,3.736-0.04.941,0.076,3.125-0.268,6.628c0,0.1-.11.678-0.161,0.955l-0.057.327a3.44,3.44,0,0,1-.165.317,2.034,2.034,0,0,0-.342.808,5.676,5.676,0,0,0,.946,2.038l0.067,0.09c0.918,1.224,1.083,1.444,1.786,1.444a2,2,0,0,0,2.02-1.535,10.682,10.682,0,0,0,.241-1.463c0.046-.35.086-0.665,0.113-0.789a10.135,10.135,0,0,0,.022-1.807c-0.007-.207-0.013-0.378-0.013-0.462l0.076-3.036c0-.057.009-0.2,0.019-0.335,0-.025,0-0.05,0-0.074a17.214,17.214,0,0,0,3.479-.855c0.023-.008.069-0.031,0.127-0.06,0.078-.037.282-0.139,0.306-0.151a1.218,1.218,0,0,1,.238.071,5.219,5.219,0,0,0,1.987.584c0.2,0,1.037-.1,2.293-0.262,0.557-.071,1.055-0.134,1.26-0.156l2.952-.238a2.589,2.589,0,0,0,1.708-.7l0.117-.041c0.16,0.09.534,0.325,1.374,0.89l0.058,0.036a3.737,3.737,0,0,0,1.46.561l3.044-.027-0.027.939,0.035,3.813a1.75,1.75,0,0,1-.412.036,25.83,25.83,0,0,1-3.147-.218c0.206-.624.636-1.838,0.711-1.979,0.069-.073.437-0.328,0.613-0.451,0.128-.088.234-0.162,0.284-0.2l0.171-.133-0.2-.813-0.124-.075a14.76,14.76,0,0,0-3.936-1.564,1.616,1.616,0,0,0-.975.319c-0.055.008-.145,0-0.329,0.007-0.42,0-3.626.15-3.944,0.18l-3.676.386h-0.614a13.156,13.156,0,0,0-2.545.278l-0.293.076,0.038,0.288a0.935,0.935,0,0,0,.719.821,2.45,2.45,0,0,1,.809,2.106c0,0.1-.037.353-0.072,0.609-0.042.294-.08,0.587-0.08,0.7,0,0.53,1.639,2.057,3.225,2.057a1.039,1.039,0,0,0,1.129-.808,1.815,1.815,0,0,1,.927-0.2c0.148-.011.517-0.057,0.939-0.11,0.624-.078,1.477-0.186,1.713-0.186,0.2,0,.867.081,1.457,0.152,0.751,0.091,1.461.176,1.763,0.176a3.409,3.409,0,0,0,1.488-.335c0.013,0.01.027,0.024,0.04,0.036a1.993,1.993,0,0,0,.162.13l3.349,2a3.573,3.573,0,0,1,.232.31,1.639,1.639,0,0,0,.1.133,7.927,7.927,0,0,0,.679.665h0a2.087,2.087,0,0,0,1.766,1.011,2.567,2.567,0,0,0,2.272-1.2c0.566-.71.838-1.147,0.8-3.267l-0.076-4.266,0.039-2.886-0.039-4.577-0.075-3.133,0.036-3.684c0-.74,0-0.74.266-0.974,0.061-.067.384-0.31,0.6-0.47a6.787,6.787,0,0,0,.734-0.591l0.189-.206-0.18-.226Zm-11.068,1.266a34.557,34.557,0,0,1,3.948-.391,2.8,2.8,0,0,1,.57.048l0.05,0.9a3.83,3.83,0,0,0-1.411-.369c-0.319.054-.584,0.107-0.787,0.148-0.136.027-.242,0.049-0.335,0.065a9.131,9.131,0,0,1-1.79.227c-0.05-.14-0.123-0.323-0.214-0.551Zm4.366,3.866a3.484,3.484,0,0,0-1.222-.179c-0.245,0-.849.079-1.551,0.17-0.477.063-1,.132-1.352,0.165,0-.274,0-0.6.017-0.862l2.829-.378c0.15-.025,1.05-0.056,1.32-0.056a0.664,0.664,0,0,1,.151.016l0.024,1.2C947.9,371.069,947.83,371.044,947.747,371.01Zm-20.1-3.337c0.122,0,.693-0.053,1.615-0.142,0.461-.043.887-0.084,1.043-0.1,0.636-.028.712-0.028,0.786-0.028,0.323,0,.453.021,0.453,0.553,0,0.111-.008.248-0.021,0.406a2.4,2.4,0,0,0-.93-0.266,2.069,2.069,0,0,0-.378.068c-0.259.054-.61,0.13-0.769,0.147a11.4,11.4,0,0,1-1.679.181v-0.007a1.775,1.775,0,0,0-.056-0.423,2.626,2.626,0,0,0-.145-0.393h0.081Zm1.02,3.292c0.055-.008.119-0.011,0.17-0.021l0.111-.014c0.918-.114,2.059-0.258,2.413-0.258h0.046l0.016,0.048-0.139,1c-0.236-.018-0.484-0.031-0.8-0.031-0.241,0-.836.066-1.522,0.142-0.463.051-.969,0.108-1.319,0.136l-0.03-.879C927.869,371.064,928.25,371.017,928.665,370.965Zm4.877,3.991c-0.4.456-2.681,2.3-3.237,2.71l-2.429,1.736-0.3.18V374.65a7.278,7.278,0,0,1,.917-0.081l0.111-.008a9.327,9.327,0,0,0,1.02-.132c0.383-.061.86-0.137,1.008-0.137a7.192,7.192,0,0,1,.8.116l0.48,0.077,0.4,0.257,0.144,0.052a3.711,3.711,0,0,0,.584.033,2.77,2.77,0,0,0,.712-0.093C933.659,374.831,933.584,374.908,933.542,374.956Zm5.845,2.9c-0.213.048-.4,0.09-0.473,0.113a15.836,15.836,0,0,1-3.457.429,3.205,3.205,0,0,0-.429.051c0.27-.194.467-0.341,0.56-0.423l2.119-1.984a10.79,10.79,0,0,0,1.6,1.49l0.319,0.27C939.537,377.824,939.454,377.842,939.387,377.857Zm0.569,6.923h-1.2l-3.632.308-0.181-1.215,0.039,0,0.127,0c0.056,0,.258-0.023.484-0.051,0.246-.031.528-0.068,0.664-0.069l2.694-.267,0.829-.028,0.489,0.126A2.629,2.629,0,0,1,939.956,384.78ZM908.8,402.285l-3.224-1.442-0.889-.314-0.129-.022c-0.059,0-.252.007-0.458,0.013-0.226.007-.471,0.017-0.633,0.024a4.922,4.922,0,0,0-1.452.609l-0.1.133h0l-0.094.053a0.812,0.812,0,0,1-.582.236c-0.189.019-1.116,0.009-1.611,0l-0.462,0-3.212.128-0.874.071,0.3-2.532a3.274,3.274,0,0,0,.119-0.626,2.713,2.713,0,0,1,.337-0.637,2.35,2.35,0,0,0,.479-1.139,2.748,2.748,0,0,0-.525-1.123v-0.15l-0.184-.1c-0.229-.13-1.18-0.765-1.587-1.036l-0.178-.119c-0.091-.057-0.359-0.183-0.655-0.317s-0.76-.349-0.856-0.421c-1.031-.77-1.478-1.083-2.172-1.083a5.782,5.782,0,0,0-1.176.278l-0.136.039c-0.209.008-.687,0.053-1.323,0.114-0.386.038-.728,0.071-0.792,0.074-0.044,0-.145-0.019-0.255-0.036-0.194-.029-0.41-0.058-0.487-0.058h-0.371l0.006,0.647,0.17,0.105a4.164,4.164,0,0,1,.417.415l0.072,0.079a1.435,1.435,0,0,0,.848.8,5.954,5.954,0,0,0,.823.3c0.12,0.038.238,0.076,0.334,0.109l0.207,6.467-0.042.292c-0.325.027-.846,0.06-0.951,0.062l-8.216.535-3.4.257a1.208,1.208,0,0,1-.141-0.056,0.946,0.946,0,0,0-.226-0.079,4.345,4.345,0,0,0-1.1-.248,3.565,3.565,0,0,0-.371.052l-0.225.041a0.549,0.549,0,0,0-.152-0.02l-0.5-.363-0.094.593c-0.116.732,0.91,1.536,1.542,1.955,0.152,0.1.665,0.323,1.5,0.684l0.258,0.112a11.433,11.433,0,0,0,4.8,1.681,1.412,1.412,0,0,0,.661-0.169,2.91,2.91,0,0,0,.508-0.423c0.045-.043.089-0.084,0.125-0.116,0.223-.032.565-0.1,0.625-0.114l3.488-.531,1.552-.1c0.088,0.746.276,2.6,0.276,3.017a1.52,1.52,0,0,0,.314.741,2.911,2.911,0,0,0-.351.04l-3.72.438a8.252,8.252,0,0,1-1.3.061,1.246,1.246,0,0,0-.358.081,1.486,1.486,0,0,1-.21.057c-0.069.008-.2,0-0.366,0-0.143,0-.327.006-0.469-0.008l-3.642-.128-0.055,0-1.88.489,0.668,0.639,0.811,0.5,0.206,0.076a2.974,2.974,0,0,0,1.082.206c0.162,0.053.372,0.12,0.391,0.12,0.033,0.09.114,0.44,0.185,0.743,0.058,0.246.111,0.465,0.118,0.482l1.007,4.637a2.232,2.232,0,0,0,.68,1.7,8.407,8.407,0,0,0,2.383,1.833,11.127,11.127,0,0,0,2.511.786l0.1,0.015,0.582-.225,0.771-.638a17.1,17.1,0,0,1,2.138-.374l3.792-.155,5.542,0.155a2.184,2.184,0,0,0,.763-0.072,9.967,9.967,0,0,1,1.3-.312l0.165-.079a1.521,1.521,0,0,0,.778-1.086,1.377,1.377,0,0,0-.2-0.55l-0.144-.293c0.083-.142.249-0.388,0.327-0.506l0.223-.382c0.244-.429.642-1.137,0.727-1.317a4,4,0,0,0,.164-0.452c0.055-.17.157-0.487,0.184-0.537l0.079-.129a3.588,3.588,0,0,1,.271-0.534,4.691,4.691,0,0,0,1.358-.384,1.689,1.689,0,0,0,.657-1.456,2.64,2.64,0,0,0-1.716-2.273l-3.3-1.435-0.728-.378-0.142-.04a13.772,13.772,0,0,0-1.449-.034h-0.11l-0.092.057a3.625,3.625,0,0,1-.569.32h-4.16l0.171-.383,0.029-.1c0.017-.152.157-0.672,0.271-1.091a6.276,6.276,0,0,0,.256-1.088,2.2,2.2,0,0,0-.03-0.37c0-.036-0.011-0.068-0.011-0.087a4.383,4.383,0,0,1,.2-0.787c0.038-.007.086-0.014,0.118-0.018,0.071-.01.135-0.029,0.091-0.019l3.209-.093,3.54,0.155,4.536,0.44a5.131,5.131,0,0,0,3.687-.925,1.434,1.434,0,0,0,.562-1.062C910.347,403.348,909.857,402.851,908.8,402.285Zm-14.556,10.183c0.178-.026,1.761.056,2.361,0.082l-0.947,3.847-0.3,1.01a1.664,1.664,0,0,1-.192.015c-0.072,0-.3-0.015-0.539-0.029-0.291-.018-0.6-0.035-0.715-0.035-0.2,0-1.648.07-3.831,0.18-1.274.064-2.686,0.133-3.252,0.158l0-.009a2.949,2.949,0,0,1-.027-0.343,2.291,2.291,0,0,0-.057-0.519c-0.171-.555-0.223-0.8-0.229-0.814l0.017-.09a1.793,1.793,0,0,0,.025-0.189,15.037,15.037,0,0,0-.625-2.544l0.708,0.072,4.017-.6Z" transform="translate(-669 -305.281)"/>
</svg>
