<svg xmlns="http://www.w3.org/2000/svg" width="124.656" height="64.657" viewBox="0 0 124.656 64.657">
  <defs>
    <style>
      .cls-1 {
        fill: #fcc800;
        fill-rule: evenodd;
      }
    </style>
  </defs>
  <path id="logo_4.svg" class="cls-1" d="M787.979,665.673c0.2-2.105-2.105-4.132-4.141-5.227-5.658-3.062-12.287-1.805-20.272,3.811a75.046,75.046,0,0,1-19.513,9.8l-0.247.093a111.521,111.521,0,0,0,13.946-9.842c13.941-11.465,25.242-6.5,28.385-4.712a8.27,8.27,0,0,1,4.208,5,2.741,2.741,0,0,1-.314,2.2c-0.75,1.012-2.2.768-3.233,0.416A1.987,1.987,0,0,0,787.979,665.673ZM675.856,652.946c-0.481-2.764-.309-6.324,2.658-8.929,2.153-1.891,4.537-1.5,5.779-.143,1.416,1.543,1.432,4.43-1.619,7.448a2.465,2.465,0,0,0-.633-1.443,3.166,3.166,0,0,0-4.431-.019A5.4,5.4,0,0,0,675.856,652.946Zm7.381-.719c3.725-3.556,3.6-7.109,1.818-9.05-1.541-1.686-4.6-2.235-7.221.064-4.389,3.854-3.33,9.485-2.345,12.438a10.467,10.467,0,0,1-3.073-6.295,10.3,10.3,0,0,1,2.957-8.23,9.769,9.769,0,0,1,9.922-2.973,7.7,7.7,0,0,1,5.362,6.259c0.059,0.624.066,1.193,0.077,1.765-0.17,2.966-2.051,4.994-4.048,7.11-2.475,2.625-5.037,5.34-4.041,9.931a8.179,8.179,0,0,0,5.51,5.945c0.054,0.02.108,0.039,0.164,0.056a9.849,9.849,0,0,0,7.681-.475l-0.03.056c-0.434.824-.856,1.62-1.225,2.366a26.731,26.731,0,0,1-3.462,5.239,4.876,4.876,0,0,0-.32-1.831c-0.73-1.745-2.541-3.059-5.871-4.26a8.8,8.8,0,0,1-5.865-6.61A12.656,12.656,0,0,1,683.237,652.227Zm43.389,15.385c-2.882-.07-5.876-2.251-6.91-3.077a9.731,9.731,0,0,1,8.485-3.381,3.143,3.143,0,0,1,3.038,3.08C731.2,665.632,729.966,667.353,726.626,667.612Zm0,1.032c0.017,0,.032,0,0.049,0h0c3.471,0.057,6.3-.969,7.758-2.819a5.161,5.161,0,0,0,.852-4.66,7.48,7.48,0,0,0-4.245-4.793,8.53,8.53,0,0,0-7.515.307c-2.869,1.458-4.286,4.008-5.928,6.96-0.687,1.237-1.4,2.513-2.268,3.8-2,2.954-5.93,3.919-7.942,4.231a17.374,17.374,0,0,0,7.661-8.258c3.267-7.873,7.322-11.452,12.76-11.261a10.419,10.419,0,0,1,7.361,3.6,9.867,9.867,0,0,1,2.555,7.438,8.4,8.4,0,0,1-2.9,6,8.984,8.984,0,0,1-6.93,1.621,10.992,10.992,0,0,1-6.587-3.916A11.349,11.349,0,0,0,726.629,668.644Zm-7.437,8.2c3.069,2.656,3.538,5.99,1.442,9.532a9.873,9.873,0,0,0-2.873-7.519c-4.392-4.571-10.96-4.757-18.5-.54-5.028,2.815-7.768,2.8-8.892,2.593a23.041,23.041,0,0,1,4.814-3.968l0.022,0.023c0.029-.026.05-0.058,0.079-0.085a27.145,27.145,0,0,1,7.456-3.208A18.088,18.088,0,0,1,719.192,676.839Zm-31.73,4.4a2.094,2.094,0,0,1,1.667.314c0.605,0.815,4.693,5.622,13.912.812,4.1-2.143,7.648-2.593,10.476-1.272a9.265,9.265,0,0,1,3.651,3.155,9.294,9.294,0,0,0-3.273-1.915c-2.569-.838-5.385-0.391-8.37,1.33-7.386,4.257-14.2,3.633-17.125.8a3.606,3.606,0,0,1-1.361-2.64A0.737,0.737,0,0,1,687.462,681.244Zm26.491-1.082c-3.17-1.411-6.985-1.006-11.391,1.293-6.372,3.326-9.943,1.825-11.566.55,1.618,0.078,4.406-.352,8.77-2.793,7.2-4.025,13.161-3.9,17.252.356a8.914,8.914,0,0,1,2.589,6.935A11.8,11.8,0,0,0,713.953,680.162Zm-26.27,5.053a8.566,8.566,0,0,0,3.107,1.856c3.68,1.311,9.154,1.006,15.252-2.51,2.716-1.565,5.25-1.984,7.528-1.245l0.19,0.065a8.441,8.441,0,0,1,2.9,1.832c-2.267-1.189-5.56-1.76-9.684.688-5.122,3.038-9.25,4.668-15.186,3.994-5.445-.605-8.193-3.723-8.493-6.532a2.875,2.875,0,0,1,1.774-3.272,3.146,3.146,0,0,1,2.317.094,1.735,1.735,0,0,0-.395.138,1.786,1.786,0,0,0-.978,1.355A4.467,4.467,0,0,0,687.683,685.215Zm40.092,2.569a101.681,101.681,0,0,0,15.831-4.557,59.826,59.826,0,0,0,16-8.8c-3.477,3.929-8.465,8.6-14.182,10.975C738.513,688.281,732.615,688.092,727.775,687.784Zm34.084-16.714c-3.037,2.943-8.853,7.474-18.619,11.192a100.768,100.768,0,0,1-20.07,5.3c-0.287,0-.565.012-0.836,0.023a104.258,104.258,0,0,1,21.443-9.07C752.9,675.817,758.6,673.021,761.859,671.07Zm-64.826-4.285-0.4.342a8.5,8.5,0,0,1-7.983,1.144c-0.049-.018-0.1-0.033-0.148-0.05a7.178,7.178,0,0,1-4.847-5.194c-0.881-4.06,1.384-6.463,3.784-9,0.355-.377.709-0.757,1.057-1.143-1.4,2.989-2.708,6.061-1.544,9.085a5.555,5.555,0,0,0,3.435,3.345,7.493,7.493,0,0,0,1.176.308,10.355,10.355,0,0,0,6.587-1.175C697.812,665.214,697.434,666,697.033,666.785Zm4.411,6.1c-0.131.053-.248,0.128-0.382,0.176l0.008,0.023a28.7,28.7,0,0,0-3.743,1.483,18.875,18.875,0,0,0,3.377-12.29A17.825,17.825,0,0,1,701.444,672.883Zm1.2-.551a18.231,18.231,0,0,0-.021-7.059,7.323,7.323,0,0,0,3.113,2.457,4.13,4.13,0,0,0,.643.174,3.4,3.4,0,0,0,1.462-.044A15.609,15.609,0,0,1,702.643,672.332Zm-3.807-9.65a8.911,8.911,0,0,1-7.093,1.918,4.767,4.767,0,0,1-3.83-3.007c-1.074-2.79.3-5.713,1.766-8.807q0.335-.708.658-1.423c-0.085.51-.173,1.013-0.261,1.491-0.513,2.794-.918,5,0.4,7.329a4.146,4.146,0,0,0,2.266,1.882,6.4,6.4,0,0,0,3.536.11,7.1,7.1,0,0,0,3.017-1.455A10.124,10.124,0,0,1,698.836,662.682Zm-3.168,8.972c0.367-.74.784-1.53,1.215-2.342a47.058,47.058,0,0,0,2.837-6.053l0.013-.012a16.933,16.933,0,0,1-5.056,12.769,24.926,24.926,0,0,0-3.783,2.875c0.064-.215.1-0.414,0.153-0.617A28.652,28.652,0,0,0,695.668,671.654Zm-10.926,7.459a3.9,3.9,0,0,0-2.469,4.361c0.275,2.563,2.258,5.335,6.1,6.7a14.784,14.784,0,0,0,3.307.746c6.226,0.706,10.518-.98,15.827-4.134,5.038-2.985,8.614-1.088,10.442.509a14.852,14.852,0,0,0-12.466,2.411,23.352,23.352,0,0,1-14.673,4.1,12.044,12.044,0,0,1-11.213-7.435,7.205,7.205,0,0,1-.122-6.609,5.183,5.183,0,0,1,4.34-2.437,4.6,4.6,0,0,1,3.99,1.927A4.2,4.2,0,0,0,684.742,679.113Zm61.082,7.244c5.666-2.356,10.561-6.778,14.067-10.647-3.077,5.763-6.683,12-13.978,13.69-4.707,1.083-8.815.368-12.771-.441A34.454,34.454,0,0,0,745.824,686.357Zm-2.338-8.83a106.36,106.36,0,0,0-19.713,8.089,60.3,60.3,0,0,1,12.765-7.434h0a67.744,67.744,0,0,1,15.512-4.542c1.6-.315,3.107-0.635,4.576-1A92.515,92.515,0,0,1,743.486,677.527ZM757.1,663.514a114.6,114.6,0,0,1-10.593,7.761c0.975-1.147,1.857-2.334,2.74-3.547,2.293-3.145,4.665-6.4,9.3-9.319,8.418-5.308,18.225-5.273,23.167-2.587l0.031,0.014a37.337,37.337,0,0,1,3.558,2.175C780.8,655.909,770.005,652.9,757.1,663.514ZM744.323,669.1c2.22-4.052,4.735-8.641,9.716-12.376,5.857-4.389,13.281-5.063,19.872-3.673a29.158,29.158,0,0,0-15.92,4.487c-4.8,3.027-7.233,6.362-9.582,9.588a31.23,31.23,0,0,1-5.889,6.592q-0.88.508-1.587,0.893A41.23,41.23,0,0,0,744.323,669.1Zm-13.429,10.7a53.86,53.86,0,0,0-8.651,5.7,7.5,7.5,0,0,0-.374-7.047A15.008,15.008,0,0,0,730.894,679.8Zm-14.248-5.73a18.7,18.7,0,0,0-6.4-1.994,12.1,12.1,0,0,0,4.857-2.777A8.428,8.428,0,0,0,716.646,674.065Zm1.789-9.8,0.068-.121c1.56-2.8,2.908-5.226,5.5-6.541a7.571,7.571,0,0,1,6.625-.287,6.445,6.445,0,0,1,3.671,4.111,4.118,4.118,0,0,1-.663,3.761,5.861,5.861,0,0,1-2.566,1.736,3.929,3.929,0,0,0,1.207-2.655,4.215,4.215,0,0,0-3.933-4.134,10.81,10.81,0,0,0-9.669,4.021C718.608,664.178,718.532,664.211,718.435,664.261Zm3.207-15.826a13.657,13.657,0,0,1,12.923,2.3c4.332,3.276,6.887,10.209,5.812,15.783a9.224,9.224,0,0,1-6.78,7.593,10.724,10.724,0,0,1-8.914-1.543,12.428,12.428,0,0,1-4.424-5.29,12.223,12.223,0,0,0,7.51,4.551,9.991,9.991,0,0,0,7.706-1.847,9.39,9.39,0,0,0,3.285-6.714,10.9,10.9,0,0,0-2.813-8.212,11.5,11.5,0,0,0-8.1-3.946c-5.926-.206-10.3,3.576-13.748,11.9a16.832,16.832,0,0,1-7.946,8.132,18.661,18.661,0,0,0,4.118-5.229c0.051-.076.1-0.137,0.153-0.219l-0.026-.016a18.254,18.254,0,0,0,1.628-4.347C713.481,654.763,716.893,650.183,721.642,648.435Zm-14.091,15.912a4.785,4.785,0,0,0,2.8-1.065,17.989,17.989,0,0,1-.914,2.024c-0.808,1.242-1.771,1.789-2.871,1.583-1.883-.368-3.888-2.771-4.6-4.849A8.706,8.706,0,0,0,707.551,664.347ZM669.1,648.794a14.311,14.311,0,0,1,3.17-10.646,15.744,15.744,0,0,1,10.882-5.518,11.1,11.1,0,0,1,9.8,3.9c2.667,3.283,3.314,8.064,1.772,13.12-1.337,4.374-1.219,7.384.341,8.952a4.571,4.571,0,0,0,3.782,1.1,5.318,5.318,0,0,1-2.795,1.469c-0.8.181-3.492,0.607-4.68-1.494-1.136-2-.78-3.943-0.288-6.631a33.787,33.787,0,0,0,.7-6.228,6.832,6.832,0,0,0-.111-2.521h0c0-.015,0-0.031-0.008-0.047h0A8.743,8.743,0,0,0,685.6,637.2a10.8,10.8,0,0,0-10.977,3.25,11.306,11.306,0,0,0-3.233,9.047,11.484,11.484,0,0,0,3.109,6.69A8.7,8.7,0,0,1,669.1,648.794Zm8.26,8.8-0.14-.364c-0.015-.04-1.6-4.277,1.066-6.594a2.265,2.265,0,0,1,2.27-.532,1.778,1.778,0,0,1,.723.472c0.507,0.547.655,1.516-.444,2.586A17.055,17.055,0,0,0,677.362,657.6Zm-0.426,4.989a12.976,12.976,0,0,1,1.745-5.15,12.289,12.289,0,0,0-.463,6.509,9.794,9.794,0,0,0,6.522,7.367c3,1.08,4.67,2.253,5.27,3.689a4.607,4.607,0,0,1,.114,2.764c-0.133.142-.252,0.26-0.382,0.394a6.414,6.414,0,0,0-1.451-2.329,7.687,7.687,0,0,0-4.186-2.177l0.027-.094A9.618,9.618,0,0,1,676.936,662.587Zm29.26,30.319c-0.612.32-1.236,0.646-1.882,0.977-10.44,5.358-21.257,4.179-26.3-2.874-2.966-4.144-3.551-9.044-1.523-12.787A7,7,0,0,1,685,674.907a6.6,6.6,0,0,1,2.55,1.641,5.287,5.287,0,0,1,1.361,2.437l-0.038.037a5.736,5.736,0,0,0-5.132-2.722,6.237,6.237,0,0,0-5.156,2.941,8.217,8.217,0,0,0,.074,7.568,13.307,13.307,0,0,0,7.628,7.231,14.309,14.309,0,0,0,4.5.8,24.334,24.334,0,0,0,15.278-4.279,13.812,13.812,0,0,1,11.77-2.228C713.627,689.1,710.126,690.857,706.2,692.906Zm43.7-1.589c-7.246,3.153-12.5,1.277-17.978-.7a58.675,58.675,0,0,0-5.73-1.818,57.763,57.763,0,0,1,5.935,1.01c4.313,0.888,8.775,1.808,14.021.6,8.1-1.867,11.817-8.857,15.1-15.025l0.012-.022c-0.028.086-.055,0.16-0.084,0.247C759.205,681.526,756.981,688.238,749.9,691.317Zm14.9-23.559c-3.759,3.059-7.811,3.857-12.938,4.867-0.778.153-1.581,0.314-2.4,0.483a69.773,69.773,0,0,0,14.7-8c5.133-3.611,9.644-5.307,13.659-5.192C770.609,660.92,765.252,667.2,764.791,667.758Zm21.007-4.442c-0.038-.086-0.1-0.184-0.141-0.275a3.529,3.529,0,0,1,1.3,2.533,1.08,1.08,0,0,1-.716.784A5.617,5.617,0,0,0,785.8,663.316Zm6.024,6.775c-1.342.664-3.379,0.483-5.151-1.826,1.308,0.4,3.116.606,4.189-.847a3.742,3.742,0,0,0,.5-3.029,7.054,7.054,0,0,0-1.233-2.594,13.681,13.681,0,0,1,3.148,3.709A3.374,3.374,0,0,1,791.822,670.091Z" transform="translate(-669 -632.562)"/>
</svg>
