<svg xmlns="http://www.w3.org/2000/svg" width="163.688" height="361.688" viewBox="0 0 163.688 361.688">
  <defs>
    <style>
      .cls-1 {
        fill: #fff;
        fill-rule: evenodd;
      }
    </style>
  </defs>
  <path id="logo_1.svg" class="cls-1" d="M761.066,546.536c2.134,0,3.64,1.445,5.383,3.119,1.684,1.617,3.594,3.451,6.372,4.014,2.325,0.471,3.829,1.4,4.47,2.756a5.44,5.44,0,0,1-.238,4.288c-1.4.78-2.394,2.507-3.019,5.27l-0.183.81,0.821-.133c10.081-1.624,16.368-4.447,18.815-5.715a13.821,13.821,0,0,0-.275,3.94,25.558,25.558,0,0,0,.87,4.312,20.918,20.918,0,0,1,.75,3.705c0.226,2.879-1.116,4.865-3.992,5.906-0.42-.088-1.65-0.335-3.466-0.619l-1.494-.233,0.98,1.15a8.041,8.041,0,0,0,2.987,2.2,9.448,9.448,0,0,0,3.628.579,24.962,24.962,0,0,0,4.192-.4c2.345,1.577,5.464,4.263,5.392,5.576a4.35,4.35,0,0,1-1.868,3.449,13.136,13.136,0,0,0-3.3,4.333l-0.309.638,0.693,0.153a109.409,109.409,0,0,0,16.915,2.384l0.594,0.035v-0.595c0-6.413.245-12.951,0.721-19.433l0.072-.978-0.881.434c-1.574.776-3.049,1.6-4.476,2.395l-1.181.657a7.728,7.728,0,0,1-3.76,1.133,12.3,12.3,0,0,1-4.6-1.273c-2.654-1.092-5.126-3.167-4.1-5.713,0.673-1.676.239-3.6-.143-5.3-0.364-1.615-.678-3.009,0-3.706a8.389,8.389,0,0,0,2-5.188,36.829,36.829,0,0,0,11.827,1.789,45.282,45.282,0,0,0,7.7-.669,33.14,33.14,0,0,0,12.39-4.407c1.868-1.078,3.217-1.856,5.471-1.935,0.083,0,.164,0,0.245,0,2.2,0,3.842,1.037,5.914,2.349a23.007,23.007,0,0,0,10.925,4.111,3.069,3.069,0,0,1,2.425,1.429c1.575,2.44.785,7.3-.479,11.043-0.769,2.276-2.373,3.336-5.046,3.336a14.109,14.109,0,0,1-2.255-.2,41.4,41.4,0,0,1-4.877-1.241c-1.592-.471-3.4-1.006-5.357-1.428l-0.532-.115-0.131.527a81.979,81.979,0,0,0-2.39,21.391l0.013,0.643,0.635-.1c6.4-1,9.015-2.312,10.92-3.272a8.191,8.191,0,0,1,4.318-1.2q0.231,0,.48.009c3.9,0.145,4.992,1.839,6.15,3.633,0.989,1.533,2.013,3.118,4.638,3.759,5.525,1.348,6.36,2.188,6.36,4.38,0,7.129-3.485,9.171-6.408,9.63a7.658,7.658,0,0,1-1.185.079,55.05,55.05,0,0,1-6.521-.687,161.074,161.074,0,0,0-16.941-1.621l-0.73-.027,0.16,0.711c5.716,25.358,22.491,34.6,27.285,36.756a13.281,13.281,0,0,0-7.531,9.865c-0.343,2.069-2.315,6.881-13.172,6.881-5.763,0-9.978-2-14.092-6.685-7.357-8.379-11.841-23.808-13.328-45.858l-0.04-.6-0.6.082c-5.925.81-11.062,1.946-13.741,3.04a4.127,4.127,0,0,1-1.563.288A7.007,7.007,0,0,1,795.3,613.7a4.089,4.089,0,0,1-1.029-3.349,4.7,4.7,0,0,0,.049-1.324l-0.2-2.192-0.878,2.019a29.29,29.29,0,0,1-2.814,5.132,36.544,36.544,0,0,1-4.841,5.415l-1.787,1.673,2.338-.728c4.3-1.336,6.013-2.665,6.516-3.13a13.71,13.71,0,0,1,1.572-.1,8.571,8.571,0,0,1,5.758,2.133,7.613,7.613,0,0,0,3.69,1.776,1.831,1.831,0,0,1,1.119,1.273c1.04,2.613.733,7.887-.263,9.091a15.277,15.277,0,0,0-1.775,3.119c-1.146,2.41-2.332,4.9-4.9,4.9-2.481,0-5.194-.725-8.629-1.644a86.217,86.217,0,0,0-16.513-3.1l-0.569-.045-0.036.569c-0.9,14.217-2.521,21.95-5.412,25.86a15.792,15.792,0,0,1-12.621,5.907c-8.689,0-13.954-4.155-15.17-8.014a19.061,19.061,0,0,0-4.639-7.878c3.358-.248,11.939-1.9,15.954-12.146,0.306-.78.6-1.546,0.877-2.3l0.34-.921-0.967.174a88.184,88.184,0,0,0-17.267,5.064,42.211,42.211,0,0,1-4.738,1.647,9.031,9.031,0,0,1-2.112.267c-2.652,0-4.6-1.425-5.085-3.719a24.393,24.393,0,0,0-3.03-6.468,9.513,9.513,0,0,1,2.857-6.4c1.916-1.664,1.921-4.265,1.761-5.639,3,0.79,13.686,3.231,31.066,3.231H754.8l0.089-.451c0.318-1.612.593-3.283,0.817-4.965l0.107-.8-0.787.177c-0.923.208-1.8,0.413-2.617,0.613l-0.276.067-0.109.261c-0.4.962-1.715,1.584-3.344,1.584a6.762,6.762,0,0,1-2.272-.4c-0.421-.153-0.851-0.3-1.281-0.453-3.623-1.265-7.045-2.459-7.318-5.527-0.479-5.384-1.882-8.347-6.007-12.682-2.145-2.256-2.844-5.338-2.076-9.162a12.308,12.308,0,0,0-.452-6.372,32.424,32.424,0,0,0,8.376,1.092,29.423,29.423,0,0,0,6.667-.747c0.046-.012,4.654-1.259,10.936-2.437l0.52-.1-0.066-.524c-0.141-1.118-.3-2.251-0.483-3.367l-0.091-.572-0.569.109a59.222,59.222,0,0,0-12.186,3.48,12.291,12.291,0,0,1-4.774,1.139,5.117,5.117,0,0,1-5.082-3.287,23.11,23.11,0,0,0-4.744-6.885,4.253,4.253,0,0,1-1.121-3.229,3.871,3.871,0,0,1,1.358-2.789,6.835,6.835,0,0,0,2.525-4.682,96.56,96.56,0,0,0,20.954,4.412l0.865,0.086-0.277-.823c-3.206-9.515-7.221-14.452-9.213-16.467,0.464,0.02,1.008.034,1.607,0.034a26.377,26.377,0,0,0,5.642-.536,24.742,24.742,0,0,0,5.568-1.9,10.661,10.661,0,0,1,5.382-1.229m11.927,34.915,0.6-.034c1.574-.091,3.145-0.155,4.67-0.19l0.854-.019-0.356-.776a25.579,25.579,0,0,0-1.637-3.019l-0.158-.249-0.3-.011c-1.048-.039-2.023-0.058-2.981-0.058h-0.641l-0.01.549q-0.03,1.543-.04,3.208l0,0.6m0.024,12.854,0.607-.05c2.965-.247,5.3-0.378,6.729-0.443l0.522-.024,0.014-.522c0.026-1,.026-2.024,0-3.033l-0.015-.554-0.555.008c-1.434.021-3.775,0.092-6.789,0.315l-0.522.039,0,0.523,0.008,3.132V594.3m-24.468,4,0.551-.137c2.284-.568,4.727-1.114,7.067-1.579l0.461-.092-0.009-.469c-0.019-1.006-.047-2-0.087-2.963l-0.027-.668-0.654.143c-3.248.712-5.963,1.421-7.67,1.891l-0.523.144,0.127,0.528q0.324,1.346.633,2.649l0.131,0.553m24.421,8.245,0.6-.034c1.662-.1,3.308-0.162,4.892-0.195l0.41-.009,0.117-.393c0.278-.939.536-1.957,0.786-3.11l0.151-.691-0.708.01c-1.869.029-3.784,0.1-5.69,0.2l-0.528.029,0,0.528c-0.006,1.043-.013,2.059-0.022,3.065l0,0.6M751.059,609.6l0.554-.116c1.431-.3,2.936-0.6,4.471-0.876l0.444-.081,0.017-.45q0.053-1.393.082-2.859l0.015-.711-0.7.152c-1.724.375-3.445,0.785-5.116,1.218l-0.521.134,0.113,0.526c0.188,0.874.361,1.706,0.524,2.509l0.113,0.554m21.606,13.321,0.645-.075a84.806,84.806,0,0,0,9.431-1.585l0.866-.2-0.555-.694a31.5,31.5,0,0,0-4.6-4.572c-0.323-.265-0.6-0.512-0.854-0.755l-0.174-.169-0.241.012c-1.235.054-2.521,0.132-3.822,0.231l-0.51.038-0.009.511q-0.068,3.476-.16,6.611l-0.019.649m109.281-144.73a40.254,40.254,0,0,0-10.7,10.949c-3.108,4.571-4.168,11.821-8.911,10.933A225.1,225.1,0,0,1,833.3,481.19a182.712,182.712,0,0,1-22.533-21.817c-13.655,13.007-13.4,21.321-25.58,27.848a28.592,28.592,0,0,1-4.809,2.054,12.772,12.772,0,0,1-6.522,6.43,18.938,18.938,0,0,0-4.258-.395c-1.807,9.845-2.3,13.581-2.3,13.581a12.3,12.3,0,0,0,4.236-3.838s-1.877,9.416,2.98,17.176c1.495,2.389.723,5.734-2.649,5.9-9.538.465-14.685,2.576-22.727,8.456-7.211,5.274-16.245,2.715-18.657-5.277a21.129,21.129,0,0,0-6.6-9.834,32.15,32.15,0,0,0,7.419-.263c6.074-.991,10.616-5.14,14.105-11.213a54.329,54.329,0,0,0,5.108-11.927c-2.513.631-5.249,1.4-8.23,2.327-3.09.966-5.338,0.506-7.284-1.724-1.325-1.518-1.84-4.346-1.693-7.8,0.156-3.656-2.87-6.968-2.87-6.968a67.476,67.476,0,0,0,12.362-.069,78.613,78.613,0,0,0,9.828-1.471,63.851,63.851,0,0,0-.395-6.635,68.421,68.421,0,0,0-2.248-11.052c-15.617,4.155-19.194.063-20.209-2.571-0.956-2.483-.147-4.277-0.515-7.45a16.049,16.049,0,0,0-3.5-7.554s11.59,3.484,23.437,1.69c7.08-1.072,10.816-1.931,16.191-4.54,7.645-3.71,10.6,2.333,21.63,2.333,3.164,0,4.451.969,4.12,4.07-0.588,5.519-6.622,8.071-6.622,8.071s-7.517-.257-20.46,2.409a76.153,76.153,0,0,0,7.914.971c4.67,0.324,5.222,2.718,3.312,5.9-0.961,1.6-1.569,4.068-2.162,7.337,2.48-2.154,5.177-4.639,7.937-7.44,10.744-10.9,14.57-17.384,14.57-17.384s-3.526-.5-3.018-5.548a14.228,14.228,0,0,0-2.54-9.62,23.822,23.822,0,0,0,9.245.762c3.354-.478,6.173-2.148,9.08-2.148,6.044,0,7,4.579,15.562,6.418,6.628,1.424,4.194,7.79,4.194,7.79a51.346,51.346,0,0,0-5.085,2.263,143.839,143.839,0,0,0,24.848,15.95C867.652,476.216,881.946,478.192,881.946,478.192Zm-53.362,26.136c-1.834.9-3.83,1.989-6.087,3.373-12.045,7.383-18.118,15.942-27.458,18.73-5.722,1.708-10.723-.176-13.544-3.8a54.576,54.576,0,0,0-7.8-7.809,132.914,132.914,0,0,0,13.018-3.5,84.561,84.561,0,0,0,25.471-14.611,12.234,12.234,0,0,0,4.5-8.138c-10.283,4.484-16.969,11.578-23.426,17.074-4.971,4.231-10.391,4.294-14.319-.3a31.359,31.359,0,0,0-8.569-7.055,90.221,90.221,0,0,0,29.184-16.254c7.074-5.991,3.7-11.826,3.7-11.826s4.218-2.707,8.207-.164a21.861,21.861,0,0,0,8.7,3.518c3.112,0.449,6.8,3.056,4.815,5.982-1.707,2.519-.379,4.737-1.515,6.138a18.49,18.49,0,0,0,11.08,1.6c6.134-.815,10.439,4,7.828,7.171-2.261,2.749-1.017,5.387-4.553,6.5a14.99,14.99,0,0,0,11.741,5.466c9.814,0.224,13.327,6.883,8.459,11.973-4.788,5.006-3.911,9.943-9.1,9.868a66.735,66.735,0,0,0-27.366,5.011c-11.728,4.748-20.455,13.583-33.637,13.583-5.73,0-8.653-2.2-11.28-5.241a43.869,43.869,0,0,0-6.689-6.087,111,111,0,0,0,15.628-3.752c11.251-3.516,26.863-8.944,36.376-15.856C829.086,510.743,829.059,506.268,828.584,504.328Zm-6.045-199.044c3.094,0,4.115,1.229,5.407,2.785a11.568,11.568,0,0,0,2.56,2.475,12.2,12.2,0,0,0,4.007,1.542,49.032,49.032,0,0,0-13.376,11.624l-0.651.854,1.065,0.062c2.536,0.148,4.87.3,7.014,0.44,4.875,0.318,8.726.569,11.811,0.569q0.344,0,.675,0a52.209,52.209,0,0,0,11.8-1.374c-1.208,1.855-3.07,5.29-2.546,8.18,0.752,4.15-1.359,5.229-1.443,5.269l-0.546.251,0.281,0.535a1.6,1.6,0,0,1-.053,1.6c-0.642,1.078-2.456,1.7-4.976,1.7a24.574,24.574,0,0,1-4.3-.437c-3.086-.56-6.525-1.064-10.223-1.5l-2.913-.343,2.58,1.41a27.014,27.014,0,0,0,9.808,3.107c5.062,0.6,5.293.793,6.179,5.091,1.074,5.215-.3,6.323-2.033,7.726a8.963,8.963,0,0,0-3.494,4.865c-0.19.64-.382,1.313-0.578,2-1.159,4.078-2.6,9.153-5.029,10.761a26.99,26.99,0,0,1-6.936,3.509,3.978,3.978,0,0,1-1.33.249,5.666,5.666,0,0,1-2.791-1.026,10.168,10.168,0,0,0-4.5-1.6c-5.047-.521-10.713-0.868-16.385-1l-0.52-.012-0.054.523c-0.085.825-.172,1.624-0.261,2.417l-0.07.618,0.615,0.016a230.068,230.068,0,0,1,26.239,2.224,9.175,9.175,0,0,0,1.638.164,4.333,4.333,0,0,0,4.1-2.572c0.62-1.007,1.109-1.8,2.585-1.8a5.043,5.043,0,0,1,.555.033,11.783,11.783,0,0,1,5.7,2.241,15.648,15.648,0,0,0,6.512,2.691c2.58,0.438,4.374,1.468,5.331,3.062a7.075,7.075,0,0,1,.583,5.075,9.011,9.011,0,0,0-5.716,10.292c1.3,8.5,12.48,13.74,16.74,15.443a18.881,18.881,0,0,0-8.307,6.165c-0.783,1-1.46,2.076-2.115,3.114-1.712,2.712-3.193,5.059-5.84,5.121-1.158-.493-12.157-5.431-16.514-16.44a40.682,40.682,0,0,1-2.359-17.5l0.031-.5-0.485-.1c-2.569-.511-5.238-0.975-7.933-1.38l-2.146-.323,1.719,1.337a18.507,18.507,0,0,1,5.657,7.64c-0.552,1.289-2.931,7.683,2.134,11.708,2.312,1.836,2.983,2.951,2.983,6.8,0,1.551-.629,1.837-2.62,2.507a19.473,19.473,0,0,0-4.768,2.194,10.119,10.119,0,0,1-5.6,1.662,14.149,14.149,0,0,1-4.787-.914,17.739,17.739,0,0,1-6.535-4.672c0.034-.2.085-0.533,0.147-0.99a8.63,8.63,0,0,0-2.391-6.649c-3.3-3.641-9.446-5.813-16.452-5.813a35.354,35.354,0,0,0-10.984,1.771c-6.113,2-7.224,5.883-6.95,7.967a7.964,7.964,0,0,1-4.555,1.263,14.444,14.444,0,0,1-5.532-1.233,9.1,9.1,0,0,1-3.944-3.289l-0.589-.845-0.393.954a42.837,42.837,0,0,1-5.663,9.763c-1.837,2.392-4.416,5.137-8.09,5.137-5.27,0-11.943-4.325-12.75-8.264a10.139,10.139,0,0,0-3.612-5.493,13.651,13.651,0,0,0,7.717-2.321,15.059,15.059,0,0,0,6.02-14.538c-0.7-4.544-4.206-4.9-5.263-4.9H734.73c-2.266-2.528-1.022-4.625,1.171-7.792a15.926,15.926,0,0,0,2.674-5.035,7.187,7.187,0,0,0-.628-4.73,9.646,9.646,0,0,0,3.162.632c5.6,0.178,9.565,1.58,12.468,4.411l0.186,0.182,0.258-.024c3.541-.336,7-0.745,10.283-1.217,5.67-.814,11.514-1.424,17.37-1.814l0.44-.03,0.078-.438q0.213-1.2.4-2.416l0.109-.7-0.705.049c-3.39.238-6.753,0.551-10,.929-1.465.171-2.935,0.358-4.369,0.557l-0.216.03-0.14.17a4.169,4.169,0,0,1-.513.523c-0.948.8-6.121,1.09-7.82,1.184l-0.2.011c-0.184.011-.362,0.015-0.535,0.015a5.605,5.605,0,0,1-4.935-2.584,9.382,9.382,0,0,0-5.391-3.125c1-1.5,2.674-5.09,1.084-10.929-2.128-7.817-5.493-11.248-6.582-12.193,0.531-1.254,2.767-5.334,9.381-5.352a89.127,89.127,0,0,0,11.159-.695c0.026,0,2.613-.338,7.028-0.713l0.578-.049-0.064-.581c-0.093-.83-0.215-1.669-0.375-2.565L770,339.153l-0.515.049c-4.357.41-8.193,0.858-10.994,1.185l-1.1.129c-8.464.983-13.329,3.207-14.119,3.591-0.042,0-.1,0-0.165,0a4.385,4.385,0,0,1-4.533-3.512,12.164,12.164,0,0,1-.2-3.691,21.159,21.159,0,0,0-.16-4.667A13.841,13.841,0,0,0,735.492,326a47.187,47.187,0,0,0,9.106.9c0.937,0,1.869-.031,2.772-0.092,4.121-.277,8.009-0.646,12.126-1.037l2.561-.242,1.2-.112-0.856-.859a12.288,12.288,0,0,0-4.281-2.6c-2.227-.934-3.7-1.552-3.7-4.647,0-4.3,1.432-4.965,5.26-6.74l0.879-.409c3.72-1.747,5.169-3.8,5.67-4.746,1.084,0.41,4.072,1.8,7.823,5.712a26.838,26.838,0,0,1,7.024,12.579l0.111,0.45,0.46-.019c4.681-.194,9.358-0.289,14.3-0.289,2.022,0,3.949.019,5.833,0.046l0.468,0.006,0.093-.462c0.346-1.72.79-3.486,1.439-5.726,1.4-4.843,3.768-9.162,6.025-11a2.625,2.625,0,0,1,1.765-.776,6.534,6.534,0,0,1,1.143.152,12.633,12.633,0,0,0,2.526.273q0.183,0,.378-0.006a13,13,0,0,0,3.527-.571,10.844,10.844,0,0,1,3.392-.5m-41.148,36.84,0.7-.03c4.611-.2,9.274-0.3,13.86-0.3,1.94,0,3.768.013,5.532,0.032l0.69,0.008-0.129-.684c-0.157-.829-0.291-1.69-0.4-2.56l-0.06-.489-0.488-.009c-2.737-.055-5.519-0.082-8.269-0.082-3.3,0-6.8.088-10.415,0.262l-0.482.023-0.052.485c-0.1.9-.221,1.8-0.367,2.651l-0.119.7m39.538,0.358-0.033-.637a5.721,5.721,0,0,1,.077-1.345,6.524,6.524,0,0,1,.18-0.736l0.2-.677-0.7-.056c-1.947-.157-4-0.3-6.105-0.423l-0.451-.027-0.124.439c-0.238.844-.448,1.654-0.623,2.408l-0.156.672,0.683,0.027c2.239,0.089,4.4.2,6.418,0.317l0.629,0.038m-0.27,12.874,0.118-.475c0.173-.694.343-1.395,0.507-2.112l0.144-.631-0.638-.064c-3.85-.389-10.126-0.891-18.161-1.08l-0.592-.015,0.015,0.6c0.017,0.653.031,1.354,0.039,2.126l0.007,0.549,0.543,0.014c7.532,0.191,13.693.673,17.536,1.043l0.482,0.047m-54.562.79,0.5-.061c3.878-.479,9.991-1.135,17.091-1.539l0.527-.03,0.006-.534c0.007-.769.009-1.492,0.006-2.153l0-.6-0.592.032c-7.549.413-13.794,1.1-17.7,1.611l-0.637.083,0.163,0.628c0.175,0.666.35,1.36,0.525,2.073l0.121,0.489m51.451,10.286,0.126-.441c0.18-.635.372-1.3,0.571-1.979l0.2-.682-0.7-.047c-4.789-.325-9.914-0.539-15.234-0.636l-0.55-.011-0.024.556q-0.042.99-.1,2.026l-0.031.59,0.585,0.01c5.2,0.089,10.15.285,14.705,0.584l0.453,0.03m-49.225.736,0.533-.054q1.359-.136,2.952-0.28c3.664-.326,7.492-0.584,11.376-0.767l0.5-.023,0.038-.5c0.054-.692.1-1.372,0.145-2.04l0.041-.636-0.631.03c-5.022.24-10.022,0.61-14.859,1.1l-0.609.062,0.11,0.607c0.121,0.666.228,1.322,0.325,1.968l0.081,0.535m29.3,30.686,0.787-.107c2.677-.363,5.125-0.758,7.277-1.174l0.694-.135-0.284-.654a32.9,32.9,0,0,0-1.953-3.806l-0.156-.26-0.3-.013c-1.44-.065-2.917-0.113-4.392-0.142l-0.483-.009-0.084.48c-0.313,1.791-.631,3.485-0.945,5.034l-0.16.786m-27.285,1.763c1.812,0,3.734-.031,5.713-0.092l0.384-.011,0.129-.365c0.454-1.274,1.161-3.34,1.954-5.945l0.25-.821-0.847.087a173.2,173.2,0,0,0-18.321,2.88l-0.492.1,0.047,0.506,0.044,0.445c0.039,0.4.079,0.8,0.105,1.22,0.013,0.222.019,0.44,0.025,0.658l0.01,0.343,0.018,0.5,0.489,0.05a104.976,104.976,0,0,0,10.492.444" transform="translate(-718.25 -305.281)"/>
</svg>
